M48
;Layer_Color=9474304
;FILE_FORMAT=4:4
METRIC,LZ
;TYPE=PLATED
T01F00S00C0.3000
%
T01
X0001Y0001
X0001725Y0000525
X0002325
X0002925
X0003525
X0004125
X0004725
X0005325
X0005925
X0006525
X0007125
X0007725
X0008325
X0008925
X0009525
X0010125
X0010725
X0011325
X0011925
X0012525
X0013125
X0013725
X0014325
X0014925
X0015525
X0016125
X0016725
X0017325
X0017925
X0018525
X0019125
X0019725
X0020325
X0020925
X0021525
X0022125
X0022725
X00233249
X0024Y0001
X0024475Y0001725
Y0002325
Y0002925
Y0003525
Y0004125
Y0004725
Y0005325
Y0005925
Y0006525
Y0007125
Y0007725
Y0008325
Y0008925
Y0009525
Y0010125
Y0010725
Y0011325
Y0011925
Y0012525
Y0013125
Y0013725
X00233249
Y0012525
Y0011325
Y0010125
Y0008925
Y0007725
Y0006525
Y0005325
Y0004125
Y0002925
Y0001725
X0022125
X0020925
Y0002925
Y0004125
Y0005325
Y0006525
Y0007725
Y0008925
Y0010125
Y0011325
Y0012525
Y0013725
X0022125
Y0012525
Y0011325
Y0010125
Y0008925
Y0007725
Y0006525
Y0005325
Y0004125
Y0002925
X0019725
X0018525
Y0001725
X0019725
Y0004125
X0018525
Y0005325
Y0006525
Y0007725
Y0008925
Y0010125
Y0011325
Y0012525
Y0013725
X00182928Y00142387
X00176928
X00170928
X00164928
X00158928
X00152928
X00146933Y0014264
X00141068Y00143907
X00135565Y00146298
X00130638Y00149722
X00126478Y00154045
X00123245Y001591
X00121066Y0016469
X00120026Y00170599
X00119887Y00176598
Y00182598
Y00188598
Y00194598
Y00200598
Y00206598
Y00212598
Y00218598
Y00224598
Y00230598
Y00236598
Y00242598
Y00248598
X00119685Y00254594
X00117663Y00260243
X00113573Y00264633
X00108082Y0026705
X00102091Y00267387
X0010125Y0025725
X0008925
X00081167Y00252213
X00075167
X00067472Y00250158
X00062987Y00246173
X00060365Y00240776
X00059887Y00234795
Y00228795
Y00222795
Y00216795
Y00210795
Y00204795
Y00198795
Y00192795
Y00186795
Y00180795
Y00174795
Y00168796
Y00162796
X00059768Y00156797
X00055393Y00152691
X0005325Y0016125
X0004125
Y0017325
Y0018525
Y0019725
Y0020925
Y0022125
Y00233249
Y0024525
Y0025725
Y00269249
Y0028125
Y00293249
Y00305249
Y00317249
Y00329249
X0005325
X00059887Y00329866
Y00323866
Y00317866
Y00311866
X00060084Y00305869
X0005325Y00305249
Y00293249
Y0028125
X0006525
Y00269249
Y0025725
X0005325
Y0024525
Y00233249
Y0022125
Y0020925
Y0019725
Y0018525
Y0017325
X00070113Y00172635
Y00166635
Y00160636
X00069808Y00154643
X00067525Y00149094
X00063266Y00144868
X00057683Y0014267
X0005325Y0013725
X0006525
Y0012525
Y0011325
Y0010125
Y0008925
Y0007725
Y0006525
Y0005325
Y0004125
Y0002925
Y0001725
X0007725
X0008925
Y0002925
Y0004125
Y0005325
Y0006525
Y0007725
Y0008925
Y0010125
Y0011325
Y0012525
Y0013725
Y0014925
Y0016125
Y0017325
Y0018525
Y0019725
Y0020925
Y0022125
Y00233249
X0010125
X0011325
Y0024525
X00130113Y00243612
Y00237612
Y00231612
Y00225612
Y00219612
Y00213612
Y00207612
Y00201612
Y00195612
Y00189612
Y00183612
Y00177612
X0013021Y00171612
X00131443Y00165741
X00134402Y00160521
X00138706Y00156341
X00144087Y00153686
X00149992Y00152623
X00155992Y00152613
X00161992
X00167992
X00173992
X00179992
X00185992
X00191992
X00194928Y00142387
X00188928
X0019725Y0013725
Y0012525
Y0011325
Y0010125
Y0008925
Y0007725
Y0006525
Y0005325
X0017325
X0016125
Y0004125
Y0002925
Y0001725
X0017325
Y0002925
Y0004125
Y0006525
X0016125
Y0007725
Y0008925
Y0010125
Y0011325
Y0012525
Y0013725
X0017325
Y0012525
Y0011325
Y0010125
Y0008925
Y0007725
X0014925
X0013725
Y0008925
Y0010125
Y0011325
Y0012525
Y0013725
X0014925
Y0012525
Y0011325
Y0010125
Y0008925
Y0006525
X0013725
Y0005325
Y0004125
Y0002925
Y0001725
X0014925
Y0002925
Y0004125
Y0005325
X0012525
X0011325
Y0004125
Y0002925
Y0001725
X0012525
Y0002925
Y0004125
Y0006525
X0011325
Y0007725
Y0008925
Y0010125
Y0011325
Y0012525
Y0013725
Y0014925
Y0016125
Y0017325
Y0018525
Y0019725
Y0020925
Y0022125
X0010125
Y0020925
Y0019725
Y0018525
Y0017325
Y0016125
Y0014925
Y0013725
Y0012525
Y0011325
Y0010125
Y0008925
Y0007725
Y0006525
Y0005325
Y0004125
Y0002925
Y0001725
X0007725Y0002925
Y0004125
Y0005325
Y0006525
Y0007725
Y0008925
Y0010125
Y0011325
Y0012525
Y0013725
Y0014925
Y0016125
Y0017325
Y0018525
X00070113Y00184635
Y00178636
Y00190635
Y00196635
Y00202635
Y00208635
Y00214635
Y00220635
Y00226635
Y00232635
X00070416Y00238628
X00075388Y00241987
X00081388
X0007725Y00233249
Y0022125
Y0020925
Y0019725
X0002925
Y0018525
Y0017325
Y0016125
X0001725
Y0017325
Y0018525
Y0019725
Y0020925
X0002925
Y0022125
Y00233249
Y0024525
Y0025725
Y00269249
Y0028125
Y00293249
Y00305249
Y00317249
Y00329249
X0001725
Y00317249
Y00305249
Y00293249
Y0028125
Y00269249
Y0025725
Y0024525
Y00233249
Y0022125
X0000525
Y0021525
Y0020925
Y0020325
Y0019725
Y0019125
Y0018525
Y0017925
Y0017325
Y0016725
Y0016125
Y0013725
Y0013125
Y0012525
Y0011925
Y0011325
Y0010725
Y0010125
Y0009525
Y0008925
Y0008325
Y0007725
Y0007125
Y0006525
Y0005925
Y0005325
Y0004725
Y0004125
Y0003525
Y0002925
Y0002325
Y0001725
X0001725
X0002925
X0004125
Y0002925
Y0004125
Y0005325
Y0006525
Y0007725
Y0008925
Y0010125
Y0011325
Y0012525
Y0013725
X0002925
Y0012525
Y0011325
Y0010125
Y0008925
Y0007725
Y0006525
Y0005325
Y0004125
Y0002925
X0001725
Y0004125
Y0005325
Y0006525
Y0007725
Y0008925
Y0010125
Y0011325
Y0012525
Y0013725
X0005325Y0012525
Y0011325
Y0010125
Y0008925
Y0007725
Y0006525
Y0005325
Y0004125
Y0002925
Y0001725
X0012525Y0007725
Y0008925
Y0010125
Y0011325
Y0012525
Y0013725
X0013725Y0017325
Y0018525
Y0019725
Y0020925
Y0022125
Y00233249
Y0024525
X00130113Y00249612
X00129869Y00255607
X00128469Y00261441
X00125691Y00266759
X00121679Y00271221
X00116742Y0027463
X00111153Y00276813
X00105207Y00277612
X0008925Y0028125
X0007725
X00077492Y00292787
X00071507Y00293203
X00066082Y00295768
X00062031Y00300194
X00073014Y00303506
X00078994Y00303013
X00070113Y00308758
Y00314758
Y00320758
Y00326758
Y00332758
X0007725Y00329249
X0008925
Y00317249
X0010125
X0011325
Y00305249
Y00293249
X0012525
X0013725
Y00305249
Y00317249
Y00329249
X0014925
X0016125
Y00317249
Y00305249
Y00293249
Y0028125
Y00269249
Y0025725
X0014925
X0013725
Y00269249
Y0028125
X0014925
Y00293249
Y00305249
Y00317249
X0017325
X00179887Y00319586
Y00325586
Y00331586
X0017325Y00329249
X00190113Y0033141
Y0032541
Y0031941
Y0031341
Y0030741
Y0030141
Y0029541
Y0028941
Y0028341
Y0027741
Y0027141
Y0026541
Y0025941
X00189636Y00253429
X00187016Y00248031
X00182532Y00244045
X00176836Y00242158
X00170839Y00241987
X0017325Y00233249
X0018525
Y0022125
Y0020925
Y0019725
Y0018525
Y0017325
Y0016125
X0019725
X0020925
Y0017325
Y0018525
Y0019725
Y0020925
Y0022125
Y00233249
Y0024525
Y0025725
Y00269249
Y0028125
Y00293249
Y00305249
Y00317249
Y00329249
X0022125
X00233249
X0024475
Y00323249
Y00317249
Y00311249
Y00305249
Y00299249
Y00293249
Y00287249
Y0028125
Y0027525
Y00269249
Y00263249
Y0025725
Y0025125
Y0024525
Y00239249
Y00233249
Y0022725
Y0022125
Y0021525
Y0020925
Y0020325
Y0019725
Y0019125
Y0018525
Y0017925
Y0017325
Y0016725
Y0016125
X00233249
Y0017325
Y0018525
Y0019725
Y0020925
Y0022125
Y00233249
Y0024525
Y0025725
Y00269249
Y0028125
Y00293249
Y00305249
Y00317249
X0022125
Y00305249
Y00293249
Y0028125
Y00269249
Y0025725
Y0024525
Y00233249
Y0022125
Y0020925
Y0019725
Y0018525
Y0017325
Y0016125
X0019725Y0017325
Y0018525
Y0019725
Y0020925
Y0022125
Y00233249
Y0024525
Y0025725
Y00269249
Y0028125
Y00293249
Y00305249
Y00317249
Y00329249
X00179887Y00313586
Y00307586
Y00301586
Y00295586
Y00289586
Y00283586
Y00277586
Y00271586
Y00265586
Y00259586
X00178503Y00253748
X00172702Y00252213
X0017325Y00269249
Y0028125
Y00293249
Y00305249
X0012525
Y00317249
Y00329249
X0011325
X0010125
Y00305249
Y00293249
X0012525Y0028125
X0014925Y00269249
Y00233249
X0016125
Y0022125
Y0020925
Y0019725
Y0018525
Y0017325
Y0016125
X0017325
Y0017325
Y0018525
Y0019725
Y0020925
Y0022125
X0014925
Y0020925
Y0019725
Y0018525
Y0017325
Y0016125
X0007725Y00269249
X0005325
Y00317249
X0007725
X0000525
Y00311249
Y00305249
Y00299249
Y00293249
Y00287249
Y0028125
Y0027525
Y00269249
Y00263249
Y0025725
Y0025125
Y0024525
Y00239249
Y00233249
Y0022725
Y00323249
Y00329249
Y00335249
Y00341249
Y00347249
Y00353249
Y00359249
Y00365249
Y00371249
Y00377249
Y00383249
X0001725Y00377249
X0002925
X0004125
Y00365249
Y00353249
Y00341249
X0005325
X00059887Y00341866
Y00347866
Y00353866
Y00359866
Y00365866
Y00371866
Y00377866
Y00383866
X00059251Y00389832
X00069148Y0039268
X00070113Y00386758
Y00380758
Y00374758
Y00368758
Y00362758
Y00356758
Y00350758
Y00344758
Y00338758
X0007725Y00341249
X0008925
Y00353249
Y00365249
Y00377249
Y00389249
Y00401249
Y00413249
Y00425249
Y00437249
Y00449249
Y00461249
Y00473249
Y00485249
Y00497249
Y00509249
Y00521249
Y00533249
Y0053975
X0009525
X0010125
X0010725
X0011325
X0011925
X0012525
X0013125
X0013725
X0014325
X0014925
X0015525
X0016125
X0016725
X0017325
X0017925
X0018525
X0019125
X0019725
X0020325
X0020925
X0021525
X0022125
X0022725
X00233249
Y00533249
X0024Y00535
X0024475Y00527249
Y00521249
Y00515249
Y00509249
Y00503249
Y00497249
Y00491249
Y00485249
Y00479249
Y00473249
Y00467249
Y00461249
Y00455249
Y00449249
Y00443249
Y00437249
Y00431249
Y00425249
Y00419249
Y00413249
Y00407249
X00233249Y00413249
Y00425249
Y00437249
Y00449249
Y00461249
Y00473249
Y00485249
Y00497249
Y00509249
Y00521249
X0022125
Y00533249
X0020925
X0019725
X0018525
X0017325
X0016125
X0014925
X0013725
X0012525
X0011325
X0010125
Y00521249
X0011325
Y00509249
Y00497249
Y00485249
Y00473249
Y00461249
Y00449249
Y00437249
Y00425249
Y00413249
Y00401249
Y00389249
Y00377249
Y00365249
Y00353249
Y00341249
X0012525
X0013725
Y00353249
Y00365249
Y00377249
Y00389249
Y00401249
Y00413249
Y00425249
Y00437249
Y00449249
Y00461249
Y00473249
Y00485249
Y00497249
Y00509249
Y00521249
X0014925
X0016125
Y00509249
Y00497249
Y00485249
Y00473249
Y00461249
Y00449249
Y00437249
Y00425249
Y00413249
Y00401249
Y00389249
Y00377249
Y00365249
Y00353249
Y00341249
X0017325
X00179887Y00343586
Y00349586
Y00355586
Y00361586
Y00367586
Y00373586
Y00379586
Y00385586
X00180473Y00391557
X00183228Y00396887
X00187798Y00400776
X00195167Y00402613
X0019725Y00413249
X0020925
Y00425249
Y00437249
Y00449249
Y00461249
Y00473249
Y00485249
Y00497249
Y00509249
Y00521249
X0019725
X0018525
Y00509249
Y00497249
Y00485249
Y00473249
Y00461249
Y00449249
Y00437249
Y00425249
Y00413249
X0017325
Y00425249
Y00437249
Y00449249
Y00461249
Y00473249
Y00485249
Y00497249
Y00509249
Y00521249
X0019725Y00509249
Y00497249
Y00485249
Y00473249
Y00461249
Y00449249
Y00437249
Y00425249
X0022125
Y00413249
Y00437249
Y00449249
Y00461249
Y00473249
Y00485249
Y00497249
Y00509249
X0014925
Y00497249
Y00485249
Y00473249
Y00461249
Y00449249
Y00437249
Y00425249
Y00413249
Y00401249
Y00389249
Y00377249
Y00365249
Y00353249
Y00341249
X00179887Y00337586
X00190113Y0033741
Y0034341
Y0034941
Y0035541
Y0036141
Y0036741
Y0037341
Y0037941
Y0038541
X00191845Y00391154
X0019725Y00377249
X0020925
Y00365249
Y00353249
Y00341249
X0022125
X00233249
X0024475
Y00347249
Y00353249
Y00359249
Y00365249
Y00371249
Y00377249
Y00383249
X00233249Y00377249
Y00365249
Y00353249
X0022125
Y00365249
Y00377249
X0019725Y00365249
Y00353249
Y00341249
X0017325Y00353249
Y00365249
Y00377249
Y00389249
Y00401249
X0012525
Y00413249
Y00425249
Y00437249
Y00449249
Y00461249
Y00473249
Y00485249
Y00497249
Y00509249
Y00521249
X0010125Y00509249
Y00497249
Y00485249
Y00473249
Y00461249
Y00449249
Y00437249
Y00425249
Y00413249
Y00401249
Y00389249
Y00377249
Y00365249
Y00353249
Y00341249
X0012525Y00353249
Y00365249
Y00377249
Y00389249
X0007725
Y00401249
Y00413249
X0006525
Y00425249
Y00437249
Y00449249
Y00461249
Y00473249
Y00485249
Y00497249
Y00509249
Y00521249
Y00533249
Y0053975
X0007125
X0007725
X0008325
X0007725Y00533249
Y00521249
Y00509249
Y00497249
Y00485249
Y00473249
Y00461249
Y00449249
Y00437249
Y00425249
X0005325
X0004125
Y00437249
Y00449249
Y00461249
Y00473249
Y00485249
Y00497249
Y00509249
Y00521249
Y00533249
Y0053975
X0003525
X0002925
X0002325
X0001725
Y00533249
X0001Y00535
X0000525Y00527249
Y00521249
Y00515249
Y00509249
Y00503249
Y00497249
Y00491249
Y00485249
Y00479249
Y00473249
Y00467249
Y00461249
Y00455249
Y00449249
Y00443249
Y00437249
Y00431249
Y00425249
Y00419249
Y00413249
Y00407249
X0001725Y00413249
X0002925
X0004125
X0005325
X0005528Y0040259
X0006113Y00401255
X00066047Y00397816
X0007725Y00377249
Y00365249
Y00353249
X0005325
Y00365249
Y00377249
X0002925Y00365249
Y00353249
Y00341249
X0001725
Y00353249
Y00365249
Y00425249
X0002925
Y00437249
Y00449249
Y00461249
Y00473249
Y00485249
Y00497249
Y00509249
Y00521249
Y00533249
X0005325
Y0053975
X0005925
X0004725
X0005325Y00521249
Y00509249
Y00497249
Y00485249
Y00473249
Y00461249
Y00449249
Y00437249
X0001725
Y00449249
Y00461249
Y00473249
Y00485249
Y00497249
Y00509249
Y00521249
X00059887Y00335866
X0024475Y00335249
M30
