%TF.GenerationSoftware,KiCad,Pcbnew,(7.0.0)*%
%TF.CreationDate,2023-09-17T18:35:59+02:00*%
%TF.ProjectId,lisn-mate,6c69736e-2d6d-4617-9465-2e6b69636164,rev?*%
%TF.SameCoordinates,PX5c887a0PY7eee240*%
%TF.FileFunction,Copper,L2,Bot*%
%TF.FilePolarity,Positive*%
%FSLAX46Y46*%
G04 Gerber Fmt 4.6, Leading zero omitted, Abs format (unit mm)*
G04 Created by KiCad (PCBNEW (7.0.0)) date 2023-09-17 18:35:59*
%MOMM*%
%LPD*%
G01*
G04 APERTURE LIST*
%TA.AperFunction,SMDPad,CuDef*%
%ADD10R,5.080000X1.500000*%
%TD*%
%TA.AperFunction,ViaPad*%
%ADD11C,0.800000*%
%TD*%
%TA.AperFunction,Conductor*%
%ADD12C,1.070000*%
%TD*%
G04 APERTURE END LIST*
D10*
%TO.P,J2,2,Ext*%
%TO.N,GND*%
X22971999Y12225999D03*
X22971999Y3725999D03*
%TD*%
%TO.P,J1,2,Ext*%
%TO.N,GND*%
X22971999Y37345999D03*
X22971999Y28845999D03*
%TD*%
%TO.P,J4,2,Ext*%
%TO.N,GND*%
X2971999Y28845999D03*
X2971999Y37345999D03*
%TD*%
%TO.P,J3,2,Ext*%
%TO.N,GND*%
X2971999Y3725999D03*
X2971999Y12225999D03*
%TD*%
D11*
%TO.N,GND*%
X6350000Y12192000D03*
X19558000Y3810000D03*
X8128000Y2032000D03*
X13208000Y38608000D03*
X1524000Y20320000D03*
X24384000Y22860000D03*
X13208000Y2032000D03*
X18288000Y2032000D03*
X24384000Y17780000D03*
X6350000Y3810000D03*
X24384000Y15240000D03*
X15748000Y2032000D03*
X18288000Y38608000D03*
X19558000Y37338000D03*
X1524000Y17780000D03*
X1524000Y22860000D03*
X24384000Y20320000D03*
X1524000Y15240000D03*
X19558000Y28702000D03*
X1524000Y25400000D03*
X24384000Y25400000D03*
X6350000Y37338000D03*
X15748000Y38608000D03*
X6350000Y28702000D03*
X10668000Y38608000D03*
X10668000Y2032000D03*
X19558000Y12192000D03*
X8128000Y38608000D03*
%TD*%
D12*
%TO.N,GND*%
X6350000Y12192000D02*
X19558000Y12192000D01*
X6350000Y37338000D02*
X19558000Y37338000D01*
X6350000Y3810000D02*
X19558000Y3810000D01*
X19558000Y28702000D02*
X6350000Y28702000D01*
%TD*%
%TA.AperFunction,Conductor*%
%TO.N,GND*%
G36*
X25338000Y39607387D02*
G01*
X25383387Y39562000D01*
X25400000Y39500000D01*
X25400000Y38720000D01*
X25383387Y38658000D01*
X25338000Y38612613D01*
X25276000Y38596000D01*
X23238326Y38596000D01*
X23225450Y38592550D01*
X23222000Y38579674D01*
X23222000Y36112326D01*
X23225450Y36099451D01*
X23238326Y36096000D01*
X25276000Y36096000D01*
X25338000Y36079387D01*
X25383387Y36034000D01*
X25400000Y35972000D01*
X25400000Y30220000D01*
X25383387Y30158000D01*
X25338000Y30112613D01*
X25276000Y30096000D01*
X23238326Y30096000D01*
X23225450Y30092550D01*
X23222000Y30079674D01*
X23222000Y27612326D01*
X23225450Y27599451D01*
X23238326Y27596000D01*
X25276000Y27596000D01*
X25338000Y27579387D01*
X25383387Y27534000D01*
X25400000Y27472000D01*
X25400000Y13600000D01*
X25383387Y13538000D01*
X25338000Y13492613D01*
X25276000Y13476000D01*
X23238326Y13476000D01*
X23225450Y13472550D01*
X23222000Y13459674D01*
X23222000Y10992326D01*
X23225450Y10979451D01*
X23238326Y10976000D01*
X25276000Y10976000D01*
X25338000Y10959387D01*
X25383387Y10914000D01*
X25400000Y10852000D01*
X25400000Y5100000D01*
X25383387Y5038000D01*
X25338000Y4992613D01*
X25276000Y4976000D01*
X23238326Y4976000D01*
X23225450Y4972550D01*
X23222000Y4959674D01*
X23222000Y2492326D01*
X23225450Y2479451D01*
X23238326Y2476000D01*
X25276000Y2476000D01*
X25338000Y2459387D01*
X25383387Y2414000D01*
X25400000Y2352000D01*
X25400000Y1140000D01*
X25383387Y1078000D01*
X25338000Y1032613D01*
X25276000Y1016000D01*
X632000Y1016000D01*
X570000Y1032613D01*
X524613Y1078000D01*
X508000Y1140000D01*
X508000Y2352000D01*
X524613Y2414000D01*
X570000Y2459387D01*
X632000Y2476000D01*
X2705674Y2476000D01*
X2718549Y2479451D01*
X2722000Y2492326D01*
X3222000Y2492326D01*
X3225450Y2479451D01*
X3238326Y2476000D01*
X5556518Y2476000D01*
X5563114Y2476354D01*
X5611667Y2481574D01*
X5626641Y2485112D01*
X5745777Y2529548D01*
X5761189Y2537963D01*
X5862092Y2613499D01*
X5874501Y2625908D01*
X5950037Y2726811D01*
X5958452Y2742223D01*
X6002888Y2861359D01*
X6006426Y2876333D01*
X6011646Y2924886D01*
X6012000Y2931482D01*
X19932000Y2931482D01*
X19932353Y2924886D01*
X19937573Y2876333D01*
X19941111Y2861359D01*
X19985547Y2742223D01*
X19993962Y2726811D01*
X20069498Y2625908D01*
X20081907Y2613499D01*
X20182810Y2537963D01*
X20198222Y2529548D01*
X20317358Y2485112D01*
X20332332Y2481574D01*
X20380885Y2476354D01*
X20387482Y2476000D01*
X22705674Y2476000D01*
X22718549Y2479451D01*
X22722000Y2492326D01*
X22722000Y3459674D01*
X22718549Y3472550D01*
X22705674Y3476000D01*
X19948326Y3476000D01*
X19935450Y3472550D01*
X19932000Y3459674D01*
X19932000Y2931482D01*
X6012000Y2931482D01*
X6012000Y3459674D01*
X6008549Y3472550D01*
X5995674Y3476000D01*
X3238326Y3476000D01*
X3225450Y3472550D01*
X3222000Y3459674D01*
X3222000Y2492326D01*
X2722000Y2492326D01*
X2722000Y3992326D01*
X3222000Y3992326D01*
X3225450Y3979451D01*
X3238326Y3976000D01*
X5995674Y3976000D01*
X6008549Y3979451D01*
X6012000Y3992326D01*
X19932000Y3992326D01*
X19935450Y3979451D01*
X19948326Y3976000D01*
X22705674Y3976000D01*
X22718549Y3979451D01*
X22722000Y3992326D01*
X22722000Y4959674D01*
X22718549Y4972550D01*
X22705674Y4976000D01*
X20387482Y4976000D01*
X20380885Y4975647D01*
X20332332Y4970427D01*
X20317358Y4966889D01*
X20198222Y4922453D01*
X20182810Y4914038D01*
X20081907Y4838502D01*
X20069498Y4826093D01*
X19993962Y4725190D01*
X19985547Y4709778D01*
X19941111Y4590642D01*
X19937573Y4575668D01*
X19932353Y4527115D01*
X19932000Y4520518D01*
X19932000Y3992326D01*
X6012000Y3992326D01*
X6012000Y4520518D01*
X6011646Y4527115D01*
X6006426Y4575668D01*
X6002888Y4590642D01*
X5958452Y4709778D01*
X5950037Y4725190D01*
X5874501Y4826093D01*
X5862092Y4838502D01*
X5761189Y4914038D01*
X5745777Y4922453D01*
X5626641Y4966889D01*
X5611667Y4970427D01*
X5563114Y4975647D01*
X5556518Y4976000D01*
X3238326Y4976000D01*
X3225450Y4972550D01*
X3222000Y4959674D01*
X3222000Y3992326D01*
X2722000Y3992326D01*
X2722000Y4959674D01*
X2718549Y4972550D01*
X2705674Y4976000D01*
X632000Y4976000D01*
X570000Y4992613D01*
X524613Y5038000D01*
X508000Y5100000D01*
X508000Y10852000D01*
X524613Y10914000D01*
X570000Y10959387D01*
X632000Y10976000D01*
X2705674Y10976000D01*
X2718549Y10979451D01*
X2722000Y10992326D01*
X3222000Y10992326D01*
X3225450Y10979451D01*
X3238326Y10976000D01*
X5556518Y10976000D01*
X5563114Y10976354D01*
X5611667Y10981574D01*
X5626641Y10985112D01*
X5745777Y11029548D01*
X5761189Y11037963D01*
X5862092Y11113499D01*
X5874501Y11125908D01*
X5950037Y11226811D01*
X5958452Y11242223D01*
X6002888Y11361359D01*
X6006426Y11376333D01*
X6011646Y11424886D01*
X6012000Y11431482D01*
X19932000Y11431482D01*
X19932353Y11424886D01*
X19937573Y11376333D01*
X19941111Y11361359D01*
X19985547Y11242223D01*
X19993962Y11226811D01*
X20069498Y11125908D01*
X20081907Y11113499D01*
X20182810Y11037963D01*
X20198222Y11029548D01*
X20317358Y10985112D01*
X20332332Y10981574D01*
X20380885Y10976354D01*
X20387482Y10976000D01*
X22705674Y10976000D01*
X22718549Y10979451D01*
X22722000Y10992326D01*
X22722000Y11959674D01*
X22718549Y11972550D01*
X22705674Y11976000D01*
X19948326Y11976000D01*
X19935450Y11972550D01*
X19932000Y11959674D01*
X19932000Y11431482D01*
X6012000Y11431482D01*
X6012000Y11959674D01*
X6008549Y11972550D01*
X5995674Y11976000D01*
X3238326Y11976000D01*
X3225450Y11972550D01*
X3222000Y11959674D01*
X3222000Y10992326D01*
X2722000Y10992326D01*
X2722000Y12492326D01*
X3222000Y12492326D01*
X3225450Y12479451D01*
X3238326Y12476000D01*
X5995674Y12476000D01*
X6008549Y12479451D01*
X6012000Y12492326D01*
X19932000Y12492326D01*
X19935450Y12479451D01*
X19948326Y12476000D01*
X22705674Y12476000D01*
X22718549Y12479451D01*
X22722000Y12492326D01*
X22722000Y13459674D01*
X22718549Y13472550D01*
X22705674Y13476000D01*
X20387482Y13476000D01*
X20380885Y13475647D01*
X20332332Y13470427D01*
X20317358Y13466889D01*
X20198222Y13422453D01*
X20182810Y13414038D01*
X20081907Y13338502D01*
X20069498Y13326093D01*
X19993962Y13225190D01*
X19985547Y13209778D01*
X19941111Y13090642D01*
X19937573Y13075668D01*
X19932353Y13027115D01*
X19932000Y13020518D01*
X19932000Y12492326D01*
X6012000Y12492326D01*
X6012000Y13020518D01*
X6011646Y13027115D01*
X6006426Y13075668D01*
X6002888Y13090642D01*
X5958452Y13209778D01*
X5950037Y13225190D01*
X5874501Y13326093D01*
X5862092Y13338502D01*
X5761189Y13414038D01*
X5745777Y13422453D01*
X5626641Y13466889D01*
X5611667Y13470427D01*
X5563114Y13475647D01*
X5556518Y13476000D01*
X3238326Y13476000D01*
X3225450Y13472550D01*
X3222000Y13459674D01*
X3222000Y12492326D01*
X2722000Y12492326D01*
X2722000Y13459674D01*
X2718549Y13472550D01*
X2705674Y13476000D01*
X632000Y13476000D01*
X570000Y13492613D01*
X524613Y13538000D01*
X508000Y13600000D01*
X508000Y27472000D01*
X524613Y27534000D01*
X570000Y27579387D01*
X632000Y27596000D01*
X2705674Y27596000D01*
X2718549Y27599451D01*
X2722000Y27612326D01*
X3222000Y27612326D01*
X3225450Y27599451D01*
X3238326Y27596000D01*
X5556518Y27596000D01*
X5563114Y27596354D01*
X5611667Y27601574D01*
X5626641Y27605112D01*
X5745777Y27649548D01*
X5761189Y27657963D01*
X5862092Y27733499D01*
X5874501Y27745908D01*
X5950037Y27846811D01*
X5958452Y27862223D01*
X6002888Y27981359D01*
X6006426Y27996333D01*
X6011646Y28044886D01*
X6012000Y28051482D01*
X19932000Y28051482D01*
X19932353Y28044886D01*
X19937573Y27996333D01*
X19941111Y27981359D01*
X19985547Y27862223D01*
X19993962Y27846811D01*
X20069498Y27745908D01*
X20081907Y27733499D01*
X20182810Y27657963D01*
X20198222Y27649548D01*
X20317358Y27605112D01*
X20332332Y27601574D01*
X20380885Y27596354D01*
X20387482Y27596000D01*
X22705674Y27596000D01*
X22718549Y27599451D01*
X22722000Y27612326D01*
X22722000Y28579674D01*
X22718549Y28592550D01*
X22705674Y28596000D01*
X19948326Y28596000D01*
X19935450Y28592550D01*
X19932000Y28579674D01*
X19932000Y28051482D01*
X6012000Y28051482D01*
X6012000Y28579674D01*
X6008549Y28592550D01*
X5995674Y28596000D01*
X3238326Y28596000D01*
X3225450Y28592550D01*
X3222000Y28579674D01*
X3222000Y27612326D01*
X2722000Y27612326D01*
X2722000Y29112326D01*
X3222000Y29112326D01*
X3225450Y29099451D01*
X3238326Y29096000D01*
X5995674Y29096000D01*
X6008549Y29099451D01*
X6012000Y29112326D01*
X19932000Y29112326D01*
X19935450Y29099451D01*
X19948326Y29096000D01*
X22705674Y29096000D01*
X22718549Y29099451D01*
X22722000Y29112326D01*
X22722000Y30079674D01*
X22718549Y30092550D01*
X22705674Y30096000D01*
X20387482Y30096000D01*
X20380885Y30095647D01*
X20332332Y30090427D01*
X20317358Y30086889D01*
X20198222Y30042453D01*
X20182810Y30034038D01*
X20081907Y29958502D01*
X20069498Y29946093D01*
X19993962Y29845190D01*
X19985547Y29829778D01*
X19941111Y29710642D01*
X19937573Y29695668D01*
X19932353Y29647115D01*
X19932000Y29640518D01*
X19932000Y29112326D01*
X6012000Y29112326D01*
X6012000Y29640518D01*
X6011646Y29647115D01*
X6006426Y29695668D01*
X6002888Y29710642D01*
X5958452Y29829778D01*
X5950037Y29845190D01*
X5874501Y29946093D01*
X5862092Y29958502D01*
X5761189Y30034038D01*
X5745777Y30042453D01*
X5626641Y30086889D01*
X5611667Y30090427D01*
X5563114Y30095647D01*
X5556518Y30096000D01*
X3238326Y30096000D01*
X3225450Y30092550D01*
X3222000Y30079674D01*
X3222000Y29112326D01*
X2722000Y29112326D01*
X2722000Y30079674D01*
X2718549Y30092550D01*
X2705674Y30096000D01*
X632000Y30096000D01*
X570000Y30112613D01*
X524613Y30158000D01*
X508000Y30220000D01*
X508000Y35972000D01*
X524613Y36034000D01*
X570000Y36079387D01*
X632000Y36096000D01*
X2705674Y36096000D01*
X2718549Y36099451D01*
X2722000Y36112326D01*
X3222000Y36112326D01*
X3225450Y36099451D01*
X3238326Y36096000D01*
X5556518Y36096000D01*
X5563114Y36096354D01*
X5611667Y36101574D01*
X5626641Y36105112D01*
X5745777Y36149548D01*
X5761189Y36157963D01*
X5862092Y36233499D01*
X5874501Y36245908D01*
X5950037Y36346811D01*
X5958452Y36362223D01*
X6002888Y36481359D01*
X6006426Y36496333D01*
X6011646Y36544886D01*
X6012000Y36551482D01*
X19932000Y36551482D01*
X19932353Y36544886D01*
X19937573Y36496333D01*
X19941111Y36481359D01*
X19985547Y36362223D01*
X19993962Y36346811D01*
X20069498Y36245908D01*
X20081907Y36233499D01*
X20182810Y36157963D01*
X20198222Y36149548D01*
X20317358Y36105112D01*
X20332332Y36101574D01*
X20380885Y36096354D01*
X20387482Y36096000D01*
X22705674Y36096000D01*
X22718549Y36099451D01*
X22722000Y36112326D01*
X22722000Y37079674D01*
X22718549Y37092550D01*
X22705674Y37096000D01*
X19948326Y37096000D01*
X19935450Y37092550D01*
X19932000Y37079674D01*
X19932000Y36551482D01*
X6012000Y36551482D01*
X6012000Y37079674D01*
X6008549Y37092550D01*
X5995674Y37096000D01*
X3238326Y37096000D01*
X3225450Y37092550D01*
X3222000Y37079674D01*
X3222000Y36112326D01*
X2722000Y36112326D01*
X2722000Y37612326D01*
X3222000Y37612326D01*
X3225450Y37599451D01*
X3238326Y37596000D01*
X5995674Y37596000D01*
X6008549Y37599451D01*
X6012000Y37612326D01*
X19932000Y37612326D01*
X19935450Y37599451D01*
X19948326Y37596000D01*
X22705674Y37596000D01*
X22718549Y37599451D01*
X22722000Y37612326D01*
X22722000Y38579674D01*
X22718549Y38592550D01*
X22705674Y38596000D01*
X20387482Y38596000D01*
X20380885Y38595647D01*
X20332332Y38590427D01*
X20317358Y38586889D01*
X20198222Y38542453D01*
X20182810Y38534038D01*
X20081907Y38458502D01*
X20069498Y38446093D01*
X19993962Y38345190D01*
X19985547Y38329778D01*
X19941111Y38210642D01*
X19937573Y38195668D01*
X19932353Y38147115D01*
X19932000Y38140518D01*
X19932000Y37612326D01*
X6012000Y37612326D01*
X6012000Y38140518D01*
X6011646Y38147115D01*
X6006426Y38195668D01*
X6002888Y38210642D01*
X5958452Y38329778D01*
X5950037Y38345190D01*
X5874501Y38446093D01*
X5862092Y38458502D01*
X5761189Y38534038D01*
X5745777Y38542453D01*
X5626641Y38586889D01*
X5611667Y38590427D01*
X5563114Y38595647D01*
X5556518Y38596000D01*
X3238326Y38596000D01*
X3225450Y38592550D01*
X3222000Y38579674D01*
X3222000Y37612326D01*
X2722000Y37612326D01*
X2722000Y38579674D01*
X2718549Y38592550D01*
X2705674Y38596000D01*
X632000Y38596000D01*
X570000Y38612613D01*
X524613Y38658000D01*
X508000Y38720000D01*
X508000Y39500000D01*
X524613Y39562000D01*
X570000Y39607387D01*
X632000Y39624000D01*
X25276000Y39624000D01*
X25338000Y39607387D01*
G37*
%TD.AperFunction*%
%TD*%
M02*
