%TF.GenerationSoftware,KiCad,Pcbnew,(7.0.0)*%
%TF.CreationDate,2023-09-17T18:35:59+02:00*%
%TF.ProjectId,lisn-mate,6c69736e-2d6d-4617-9465-2e6b69636164,rev?*%
%TF.SameCoordinates,PX5c887a0PY7eee240*%
%TF.FileFunction,Copper,L1,Top*%
%TF.FilePolarity,Positive*%
%FSLAX46Y46*%
G04 Gerber Fmt 4.6, Leading zero omitted, Abs format (unit mm)*
G04 Created by KiCad (PCBNEW (7.0.0)) date 2023-09-17 18:35:59*
%MOMM*%
%LPD*%
G01*
G04 APERTURE LIST*
%TA.AperFunction,SMDPad,CuDef*%
%ADD10O,1.500000X0.800000*%
%TD*%
%TA.AperFunction,SMDPad,CuDef*%
%ADD11R,5.080000X1.500000*%
%TD*%
%TA.AperFunction,ViaPad*%
%ADD12C,0.800000*%
%TD*%
%TA.AperFunction,Conductor*%
%ADD13C,1.070000*%
%TD*%
G04 APERTURE END LIST*
D10*
%TO.P,T1,1,AA*%
%TO.N,Net-(J1-In)*%
X16146999Y17955999D03*
%TO.P,T1,2*%
%TO.N,N/C*%
X16146999Y20495999D03*
%TO.P,T1,3,AB*%
%TO.N,GND*%
X16146999Y23035999D03*
%TO.P,T1,4,SA*%
%TO.N,Net-(J4-In)*%
X9796999Y23035999D03*
%TO.P,T1,5,SC*%
%TO.N,Net-(J2-In)*%
X9796999Y20495999D03*
%TO.P,T1,6,SB*%
%TO.N,Net-(J3-In)*%
X9796999Y17955999D03*
%TD*%
D11*
%TO.P,J2,1,In*%
%TO.N,Net-(J2-In)*%
X22971999Y7975999D03*
%TO.P,J2,2,Ext*%
%TO.N,GND*%
X22971999Y12225999D03*
X22971999Y3725999D03*
%TD*%
%TO.P,J1,1,In*%
%TO.N,Net-(J1-In)*%
X22971999Y33095999D03*
%TO.P,J1,2,Ext*%
%TO.N,GND*%
X22971999Y37345999D03*
X22971999Y28845999D03*
%TD*%
%TO.P,J4,1,In*%
%TO.N,Net-(J4-In)*%
X2971999Y33095999D03*
%TO.P,J4,2,Ext*%
%TO.N,GND*%
X2971999Y28845999D03*
X2971999Y37345999D03*
%TD*%
%TO.P,J3,1,In*%
%TO.N,Net-(J3-In)*%
X2971999Y7975999D03*
%TO.P,J3,2,Ext*%
%TO.N,GND*%
X2971999Y3725999D03*
X2971999Y12225999D03*
%TD*%
D12*
%TO.N,GND*%
X6350000Y12192000D03*
X19558000Y3810000D03*
X8128000Y2032000D03*
X13208000Y38608000D03*
X1524000Y20320000D03*
X24384000Y22860000D03*
X13208000Y2032000D03*
X18288000Y2032000D03*
X24384000Y17780000D03*
X6350000Y3810000D03*
X24384000Y15240000D03*
X15748000Y2032000D03*
X18288000Y38608000D03*
X19558000Y37338000D03*
X1524000Y17780000D03*
X1524000Y22860000D03*
X24384000Y20320000D03*
X1524000Y15240000D03*
X19558000Y28702000D03*
X1524000Y25400000D03*
X24384000Y25400000D03*
X6350000Y37338000D03*
X15748000Y38608000D03*
X6350000Y28702000D03*
X10668000Y38608000D03*
X10668000Y2032000D03*
X19558000Y12192000D03*
X8128000Y38608000D03*
%TD*%
D13*
%TO.N,Net-(J1-In)*%
X22972000Y33096000D02*
X21182000Y33096000D01*
X18288000Y30202000D02*
X18288000Y20097000D01*
X21182000Y33096000D02*
X18288000Y30202000D01*
X18288000Y20097000D02*
X16147000Y17956000D01*
%TO.N,GND*%
X22938000Y12192000D02*
X22972000Y12226000D01*
X2972000Y28846000D02*
X6206000Y28846000D01*
X22972000Y28846000D02*
X19702000Y28846000D01*
X6206000Y28846000D02*
X6350000Y28702000D01*
X19558000Y3810000D02*
X22888000Y3810000D01*
X2972000Y37346000D02*
X6342000Y37346000D01*
X22964000Y37338000D02*
X22972000Y37346000D01*
X6266000Y3726000D02*
X6350000Y3810000D01*
X16147000Y33927000D02*
X16147000Y23036000D01*
X19558000Y12192000D02*
X22938000Y12192000D01*
X2972000Y12226000D02*
X6316000Y12226000D01*
X2972000Y3726000D02*
X6266000Y3726000D01*
X6342000Y37346000D02*
X6350000Y37338000D01*
X19558000Y37338000D02*
X22964000Y37338000D01*
X22888000Y3810000D02*
X22972000Y3726000D01*
X19558000Y37338000D02*
X16147000Y33927000D01*
X6316000Y12226000D02*
X6350000Y12192000D01*
X19702000Y28846000D02*
X19558000Y28702000D01*
%TO.N,Net-(J2-In)*%
X9797000Y20496000D02*
X13462000Y16831000D01*
X15646000Y7976000D02*
X22972000Y7976000D01*
X13462000Y16831000D02*
X13462000Y10160000D01*
X13462000Y10160000D02*
X15646000Y7976000D01*
%TO.N,Net-(J3-In)*%
X2972000Y7976000D02*
X5944000Y7976000D01*
X5944000Y7976000D02*
X9797000Y11829000D01*
X9797000Y11829000D02*
X9797000Y17956000D01*
%TO.N,Net-(J4-In)*%
X9797000Y29319000D02*
X9797000Y23036000D01*
X6020000Y33096000D02*
X9797000Y29319000D01*
X2972000Y33096000D02*
X6020000Y33096000D01*
%TD*%
%TA.AperFunction,Conductor*%
%TO.N,GND*%
G36*
X10884318Y18368528D02*
G01*
X12690181Y16562665D01*
X12717061Y16522437D01*
X12726500Y16474984D01*
X12726500Y10222617D01*
X12725191Y10204648D01*
X12721806Y10181537D01*
X12722435Y10174346D01*
X12722435Y10174339D01*
X12726028Y10133279D01*
X12726500Y10122472D01*
X12726500Y10117161D01*
X12726916Y10113600D01*
X12726917Y10113586D01*
X12730022Y10087023D01*
X12730388Y10083438D01*
X12736791Y10010256D01*
X12739063Y10003397D01*
X12739659Y10000515D01*
X12739757Y9999905D01*
X12739766Y9999863D01*
X12739935Y9999269D01*
X12740614Y9996403D01*
X12741453Y9989227D01*
X12743922Y9982444D01*
X12743924Y9982435D01*
X12766575Y9920202D01*
X12767758Y9916799D01*
X12788599Y9853906D01*
X12788603Y9853896D01*
X12790873Y9847048D01*
X12794662Y9840904D01*
X12795910Y9838229D01*
X12796146Y9837658D01*
X12796159Y9837632D01*
X12796461Y9837091D01*
X12797788Y9834449D01*
X12800259Y9827661D01*
X12840636Y9766271D01*
X12842547Y9763271D01*
X12877341Y9706860D01*
X12877345Y9706855D01*
X12881134Y9700712D01*
X12886240Y9695606D01*
X12888070Y9693292D01*
X12888424Y9692801D01*
X12888462Y9692755D01*
X12888877Y9692302D01*
X12890768Y9690048D01*
X12894739Y9684011D01*
X12899992Y9679055D01*
X12899993Y9679054D01*
X12948179Y9633593D01*
X12950766Y9631080D01*
X15081645Y7500201D01*
X15093426Y7486569D01*
X15107375Y7467833D01*
X15112901Y7463196D01*
X15112907Y7463190D01*
X15144489Y7436690D01*
X15152464Y7429382D01*
X15156214Y7425632D01*
X15159046Y7423393D01*
X15159056Y7423384D01*
X15180021Y7406808D01*
X15182777Y7404564D01*
X15239085Y7357315D01*
X15245542Y7354073D01*
X15248000Y7352456D01*
X15248498Y7352096D01*
X15248549Y7352064D01*
X15249087Y7351763D01*
X15251585Y7350223D01*
X15257251Y7345742D01*
X15323857Y7314684D01*
X15327046Y7313139D01*
X15386269Y7283396D01*
X15386274Y7283394D01*
X15392732Y7280151D01*
X15399766Y7278484D01*
X15402533Y7277477D01*
X15403105Y7277240D01*
X15403140Y7277228D01*
X15403745Y7277056D01*
X15406527Y7276135D01*
X15413077Y7273080D01*
X15485000Y7258229D01*
X15488508Y7257451D01*
X15552999Y7242166D01*
X15553006Y7242166D01*
X15560032Y7240500D01*
X15567256Y7240500D01*
X15570183Y7240158D01*
X15570783Y7240061D01*
X15570843Y7240055D01*
X15571457Y7240028D01*
X15574386Y7239772D01*
X15581461Y7238311D01*
X15654899Y7240448D01*
X15658507Y7240500D01*
X20124448Y7240500D01*
X20171901Y7231061D01*
X20212130Y7204181D01*
X20239010Y7163951D01*
X20240749Y7159751D01*
X20243133Y7147769D01*
X20287448Y7081448D01*
X20353769Y7037133D01*
X20412252Y7025500D01*
X20418348Y7025500D01*
X25276000Y7025500D01*
X25338000Y7008887D01*
X25383387Y6963500D01*
X25400000Y6901500D01*
X25400000Y5100000D01*
X25383387Y5038000D01*
X25338000Y4992613D01*
X25276000Y4976000D01*
X23238326Y4976000D01*
X23225450Y4972550D01*
X23222000Y4959674D01*
X23222000Y2492326D01*
X23225450Y2479451D01*
X23238326Y2476000D01*
X25276000Y2476000D01*
X25338000Y2459387D01*
X25383387Y2414000D01*
X25400000Y2352000D01*
X25400000Y1140000D01*
X25383387Y1078000D01*
X25338000Y1032613D01*
X25276000Y1016000D01*
X632000Y1016000D01*
X570000Y1032613D01*
X524613Y1078000D01*
X508000Y1140000D01*
X508000Y2352000D01*
X524613Y2414000D01*
X570000Y2459387D01*
X632000Y2476000D01*
X2705674Y2476000D01*
X2718549Y2479451D01*
X2722000Y2492326D01*
X3222000Y2492326D01*
X3225450Y2479451D01*
X3238326Y2476000D01*
X5556518Y2476000D01*
X5563114Y2476354D01*
X5611667Y2481574D01*
X5626641Y2485112D01*
X5745777Y2529548D01*
X5761189Y2537963D01*
X5862092Y2613499D01*
X5874501Y2625908D01*
X5950037Y2726811D01*
X5958452Y2742223D01*
X6002888Y2861359D01*
X6006426Y2876333D01*
X6011646Y2924886D01*
X6012000Y2931482D01*
X19932000Y2931482D01*
X19932353Y2924886D01*
X19937573Y2876333D01*
X19941111Y2861359D01*
X19985547Y2742223D01*
X19993962Y2726811D01*
X20069498Y2625908D01*
X20081907Y2613499D01*
X20182810Y2537963D01*
X20198222Y2529548D01*
X20317358Y2485112D01*
X20332332Y2481574D01*
X20380885Y2476354D01*
X20387482Y2476000D01*
X22705674Y2476000D01*
X22718549Y2479451D01*
X22722000Y2492326D01*
X22722000Y3459674D01*
X22718549Y3472550D01*
X22705674Y3476000D01*
X19948326Y3476000D01*
X19935450Y3472550D01*
X19932000Y3459674D01*
X19932000Y2931482D01*
X6012000Y2931482D01*
X6012000Y3459674D01*
X6008549Y3472550D01*
X5995674Y3476000D01*
X3238326Y3476000D01*
X3225450Y3472550D01*
X3222000Y3459674D01*
X3222000Y2492326D01*
X2722000Y2492326D01*
X2722000Y3992326D01*
X3222000Y3992326D01*
X3225450Y3979451D01*
X3238326Y3976000D01*
X5995674Y3976000D01*
X6008549Y3979451D01*
X6012000Y3992326D01*
X19932000Y3992326D01*
X19935450Y3979451D01*
X19948326Y3976000D01*
X22705674Y3976000D01*
X22718549Y3979451D01*
X22722000Y3992326D01*
X22722000Y4959674D01*
X22718549Y4972550D01*
X22705674Y4976000D01*
X20387482Y4976000D01*
X20380885Y4975647D01*
X20332332Y4970427D01*
X20317358Y4966889D01*
X20198222Y4922453D01*
X20182810Y4914038D01*
X20081907Y4838502D01*
X20069498Y4826093D01*
X19993962Y4725190D01*
X19985547Y4709778D01*
X19941111Y4590642D01*
X19937573Y4575668D01*
X19932353Y4527115D01*
X19932000Y4520518D01*
X19932000Y3992326D01*
X6012000Y3992326D01*
X6012000Y4520518D01*
X6011646Y4527115D01*
X6006426Y4575668D01*
X6002888Y4590642D01*
X5958452Y4709778D01*
X5950037Y4725190D01*
X5874501Y4826093D01*
X5862092Y4838502D01*
X5761189Y4914038D01*
X5745777Y4922453D01*
X5626641Y4966889D01*
X5611667Y4970427D01*
X5563114Y4975647D01*
X5556518Y4976000D01*
X3238326Y4976000D01*
X3225450Y4972550D01*
X3222000Y4959674D01*
X3222000Y3992326D01*
X2722000Y3992326D01*
X2722000Y4959674D01*
X2718549Y4972550D01*
X2705674Y4976000D01*
X632000Y4976000D01*
X570000Y4992613D01*
X524613Y5038000D01*
X508000Y5100000D01*
X508000Y6901500D01*
X524613Y6963500D01*
X570000Y7008887D01*
X632000Y7025500D01*
X5525652Y7025500D01*
X5531748Y7025500D01*
X5590231Y7037133D01*
X5656552Y7081448D01*
X5700867Y7147769D01*
X5703250Y7159752D01*
X5704990Y7163951D01*
X5731870Y7204181D01*
X5772099Y7231061D01*
X5819552Y7240500D01*
X5881383Y7240500D01*
X5899352Y7239192D01*
X5922463Y7235806D01*
X5970720Y7240028D01*
X5981528Y7240500D01*
X5983230Y7240500D01*
X5986839Y7240500D01*
X6017030Y7244030D01*
X6020511Y7244385D01*
X6093744Y7250791D01*
X6100608Y7253067D01*
X6103465Y7253656D01*
X6104087Y7253757D01*
X6104152Y7253771D01*
X6104745Y7253939D01*
X6107597Y7254615D01*
X6114773Y7255453D01*
X6121559Y7257924D01*
X6121563Y7257924D01*
X6183816Y7280583D01*
X6187225Y7281768D01*
X6250093Y7302600D01*
X6250094Y7302601D01*
X6256952Y7304873D01*
X6263102Y7308668D01*
X6265761Y7309907D01*
X6266330Y7310143D01*
X6266380Y7310167D01*
X6266934Y7310476D01*
X6269540Y7311786D01*
X6276339Y7314259D01*
X6337747Y7354650D01*
X6340694Y7356528D01*
X6403288Y7395134D01*
X6408398Y7400246D01*
X6410700Y7402065D01*
X6411196Y7402423D01*
X6411256Y7402473D01*
X6411711Y7402889D01*
X6413949Y7404768D01*
X6419989Y7408739D01*
X6470442Y7462218D01*
X6472887Y7464735D01*
X10272806Y11264654D01*
X10286426Y11276424D01*
X10305167Y11290375D01*
X10336308Y11327490D01*
X10343607Y11335455D01*
X10347369Y11339215D01*
X10366205Y11363038D01*
X10368453Y11365797D01*
X10415685Y11422085D01*
X10418930Y11428548D01*
X10420529Y11430979D01*
X10420894Y11431485D01*
X10420940Y11431556D01*
X10421235Y11432085D01*
X10422773Y11434579D01*
X10427259Y11440251D01*
X10458323Y11506872D01*
X10459863Y11510053D01*
X10492849Y11575732D01*
X10494516Y11582771D01*
X10495515Y11585513D01*
X10495756Y11586096D01*
X10495776Y11586153D01*
X10495944Y11586745D01*
X10496866Y11589529D01*
X10499921Y11596078D01*
X10514780Y11668044D01*
X10515562Y11671569D01*
X10532500Y11743032D01*
X10532500Y11750253D01*
X10532843Y11753186D01*
X10532938Y11753775D01*
X10532945Y11753846D01*
X10532972Y11754457D01*
X10533228Y11757388D01*
X10534689Y11764461D01*
X10532552Y11837915D01*
X10532500Y11841521D01*
X10532500Y17435073D01*
X10541938Y17482524D01*
X10568816Y17522752D01*
X10568835Y17522772D01*
X10575282Y17527718D01*
X10671536Y17653159D01*
X10732044Y17799238D01*
X10752682Y17956000D01*
X10732044Y18112762D01*
X10682075Y18233396D01*
X10674164Y18300244D01*
X10702346Y18361378D01*
X10758319Y18398778D01*
X10825584Y18401421D01*
X10884318Y18368528D01*
G37*
%TD.AperFunction*%
%TA.AperFunction,Conductor*%
G36*
X25338000Y39607387D02*
G01*
X25383387Y39562000D01*
X25400000Y39500000D01*
X25400000Y38720000D01*
X25383387Y38658000D01*
X25338000Y38612613D01*
X25276000Y38596000D01*
X23238326Y38596000D01*
X23225450Y38592550D01*
X23222000Y38579674D01*
X23222000Y36112326D01*
X23225450Y36099451D01*
X23238326Y36096000D01*
X25276000Y36096000D01*
X25338000Y36079387D01*
X25383387Y36034000D01*
X25400000Y35972000D01*
X25400000Y34170500D01*
X25383387Y34108500D01*
X25338000Y34063113D01*
X25276000Y34046500D01*
X20412252Y34046500D01*
X20406277Y34045312D01*
X20406271Y34045311D01*
X20365747Y34037250D01*
X20365745Y34037250D01*
X20353769Y34034867D01*
X20343618Y34028085D01*
X20343615Y34028083D01*
X20297601Y33997337D01*
X20297598Y33997335D01*
X20287448Y33990552D01*
X20280665Y33980402D01*
X20280663Y33980399D01*
X20249917Y33934385D01*
X20249915Y33934382D01*
X20243133Y33924231D01*
X20240750Y33912255D01*
X20240750Y33912253D01*
X20232689Y33871729D01*
X20232688Y33871723D01*
X20231500Y33865748D01*
X20231500Y33859652D01*
X20231500Y33237017D01*
X20222061Y33189564D01*
X20195181Y33149336D01*
X17812200Y30766356D01*
X17798572Y30754578D01*
X17785626Y30744940D01*
X17785615Y30744931D01*
X17779833Y30740625D01*
X17775196Y30735100D01*
X17775196Y30735099D01*
X17748691Y30703512D01*
X17741396Y30695550D01*
X17740180Y30694335D01*
X17740174Y30694329D01*
X17737631Y30691785D01*
X17735394Y30688957D01*
X17735386Y30688947D01*
X17718812Y30667987D01*
X17716539Y30665196D01*
X17673951Y30614441D01*
X17673948Y30614437D01*
X17669315Y30608915D01*
X17666079Y30602475D01*
X17664446Y30599990D01*
X17664100Y30599511D01*
X17664066Y30599458D01*
X17663774Y30598934D01*
X17662215Y30596407D01*
X17657742Y30590749D01*
X17654694Y30584213D01*
X17654688Y30584203D01*
X17626679Y30524139D01*
X17625125Y30520929D01*
X17592151Y30455268D01*
X17590486Y30448248D01*
X17589470Y30445454D01*
X17589240Y30444898D01*
X17589222Y30444848D01*
X17589059Y30444272D01*
X17588127Y30441460D01*
X17585079Y30434922D01*
X17583619Y30427856D01*
X17583620Y30427856D01*
X17570227Y30362997D01*
X17569447Y30359480D01*
X17554164Y30294994D01*
X17554162Y30294985D01*
X17552500Y30287968D01*
X17552500Y30280756D01*
X17552156Y30277812D01*
X17552060Y30277221D01*
X17552055Y30277164D01*
X17552028Y30276543D01*
X17551771Y30273613D01*
X17550311Y30266539D01*
X17550521Y30259323D01*
X17550521Y30259322D01*
X17552448Y30193100D01*
X17552500Y30189493D01*
X17552500Y23461415D01*
X17534565Y23397180D01*
X17485949Y23351526D01*
X17420714Y23337660D01*
X17357731Y23359593D01*
X17315220Y23410980D01*
X17283357Y23482545D01*
X17276898Y23493733D01*
X17173331Y23636281D01*
X17164686Y23645881D01*
X17147860Y23661032D01*
X17136256Y23667072D01*
X17124982Y23660431D01*
X16512096Y23047544D01*
X16505431Y23036000D01*
X16512095Y23024458D01*
X17124981Y22411572D01*
X17136256Y22404930D01*
X17147861Y22410971D01*
X17164686Y22426120D01*
X17173331Y22435721D01*
X17276898Y22578267D01*
X17283357Y22589455D01*
X17315220Y22661019D01*
X17357731Y22712406D01*
X17420714Y22734339D01*
X17485949Y22720473D01*
X17534565Y22674819D01*
X17552500Y22610584D01*
X17552500Y20453016D01*
X17543061Y20405563D01*
X17516183Y20365338D01*
X17369455Y20218609D01*
X17234318Y20083473D01*
X17175584Y20050581D01*
X17108318Y20053224D01*
X17052346Y20090624D01*
X17024163Y20151758D01*
X17032075Y20218604D01*
X17082044Y20339238D01*
X17102682Y20496000D01*
X17082044Y20652762D01*
X17021536Y20798841D01*
X16925282Y20924282D01*
X16799841Y21020536D01*
X16661273Y21077933D01*
X16661271Y21077934D01*
X16661268Y21077935D01*
X16653762Y21081044D01*
X16645708Y21082105D01*
X16645702Y21082106D01*
X16540381Y21095971D01*
X16540377Y21095972D01*
X16536361Y21096500D01*
X15757639Y21096500D01*
X15753623Y21095972D01*
X15753618Y21095971D01*
X15648297Y21082106D01*
X15648289Y21082104D01*
X15640238Y21081044D01*
X15632733Y21077936D01*
X15632728Y21077934D01*
X15501666Y21023646D01*
X15501662Y21023645D01*
X15494159Y21020536D01*
X15487714Y21015592D01*
X15487711Y21015589D01*
X15375164Y20929229D01*
X15375160Y20929226D01*
X15368718Y20924282D01*
X15363774Y20917840D01*
X15363771Y20917836D01*
X15277411Y20805289D01*
X15277408Y20805286D01*
X15272464Y20798841D01*
X15269355Y20791338D01*
X15269354Y20791334D01*
X15215066Y20660272D01*
X15215064Y20660267D01*
X15211956Y20652762D01*
X15210896Y20644711D01*
X15210894Y20644703D01*
X15192702Y20506518D01*
X15191318Y20496000D01*
X15192379Y20487941D01*
X15210894Y20347298D01*
X15210895Y20347292D01*
X15211956Y20339238D01*
X15272464Y20193159D01*
X15368718Y20067718D01*
X15494159Y19971464D01*
X15640238Y19910956D01*
X15757639Y19895500D01*
X16532308Y19895500D01*
X16536361Y19895500D01*
X16653762Y19910956D01*
X16774393Y19960924D01*
X16841243Y19968835D01*
X16902376Y19940652D01*
X16939776Y19884680D01*
X16942419Y19817415D01*
X16909526Y19758681D01*
X15729484Y18578640D01*
X15696650Y18555110D01*
X15657994Y18543383D01*
X15648304Y18542107D01*
X15648296Y18542106D01*
X15640238Y18541044D01*
X15632731Y18537935D01*
X15632725Y18537933D01*
X15501666Y18483646D01*
X15501662Y18483645D01*
X15494159Y18480536D01*
X15487714Y18475592D01*
X15487711Y18475589D01*
X15375164Y18389229D01*
X15375160Y18389226D01*
X15368718Y18384282D01*
X15363774Y18377840D01*
X15363771Y18377836D01*
X15277411Y18265289D01*
X15277408Y18265286D01*
X15272464Y18258841D01*
X15269355Y18251338D01*
X15269354Y18251334D01*
X15215066Y18120272D01*
X15215064Y18120267D01*
X15211956Y18112762D01*
X15210896Y18104711D01*
X15210894Y18104703D01*
X15192702Y17966518D01*
X15191318Y17956000D01*
X15192379Y17947941D01*
X15210894Y17807298D01*
X15210895Y17807292D01*
X15211956Y17799238D01*
X15272464Y17653159D01*
X15368718Y17527718D01*
X15494159Y17431464D01*
X15580569Y17395672D01*
X15632729Y17374066D01*
X15632731Y17374066D01*
X15640238Y17370956D01*
X15684030Y17365192D01*
X15738967Y17343829D01*
X15795555Y17304205D01*
X15955342Y17240725D01*
X16125463Y17215806D01*
X16296744Y17230791D01*
X16459952Y17284873D01*
X16562200Y17347942D01*
X16611113Y17365342D01*
X16653762Y17370956D01*
X16799841Y17431464D01*
X16925282Y17527718D01*
X17021536Y17653159D01*
X17082044Y17799238D01*
X17084381Y17816991D01*
X17096107Y17855649D01*
X17119636Y17888484D01*
X18763806Y19532654D01*
X18777426Y19544424D01*
X18796167Y19558375D01*
X18827308Y19595490D01*
X18834607Y19603455D01*
X18838369Y19607215D01*
X18857203Y19631037D01*
X18859437Y19633780D01*
X18906685Y19690085D01*
X18909930Y19696548D01*
X18911531Y19698982D01*
X18911892Y19699482D01*
X18911936Y19699552D01*
X18912238Y19700092D01*
X18913771Y19702578D01*
X18918258Y19708251D01*
X18949350Y19774931D01*
X18950824Y19777976D01*
X18983849Y19843732D01*
X18985516Y19850768D01*
X18986517Y19853517D01*
X18986753Y19854088D01*
X18986777Y19854155D01*
X18986944Y19854744D01*
X18987865Y19857527D01*
X18990921Y19864077D01*
X19005781Y19936048D01*
X19006563Y19939573D01*
X19011623Y19960923D01*
X19023500Y20011032D01*
X19023500Y20018253D01*
X19023843Y20021186D01*
X19023938Y20021775D01*
X19023945Y20021846D01*
X19023972Y20022457D01*
X19024228Y20025387D01*
X19025689Y20032461D01*
X19023552Y20105900D01*
X19023500Y20109507D01*
X19023500Y28051482D01*
X19932000Y28051482D01*
X19932353Y28044886D01*
X19937573Y27996333D01*
X19941111Y27981359D01*
X19985547Y27862223D01*
X19993962Y27846811D01*
X20069498Y27745908D01*
X20081907Y27733499D01*
X20182810Y27657963D01*
X20198222Y27649548D01*
X20317358Y27605112D01*
X20332332Y27601574D01*
X20380885Y27596354D01*
X20387482Y27596000D01*
X22705674Y27596000D01*
X22718549Y27599451D01*
X22722000Y27612326D01*
X22722000Y28579674D01*
X22718549Y28592550D01*
X22705674Y28596000D01*
X19948326Y28596000D01*
X19935450Y28592550D01*
X19932000Y28579674D01*
X19932000Y28051482D01*
X19023500Y28051482D01*
X19023500Y29112326D01*
X19932000Y29112326D01*
X19935450Y29099451D01*
X19948326Y29096000D01*
X22705674Y29096000D01*
X22718549Y29099451D01*
X22722000Y29112326D01*
X22722000Y30079674D01*
X22718549Y30092550D01*
X22705674Y30096000D01*
X20387482Y30096000D01*
X20380885Y30095647D01*
X20332332Y30090427D01*
X20317358Y30086889D01*
X20198222Y30042453D01*
X20182810Y30034038D01*
X20081907Y29958502D01*
X20069498Y29946093D01*
X19993962Y29845190D01*
X19985547Y29829778D01*
X19941111Y29710642D01*
X19937573Y29695668D01*
X19932353Y29647115D01*
X19932000Y29640518D01*
X19932000Y29112326D01*
X19023500Y29112326D01*
X19023500Y29845984D01*
X19032939Y29893437D01*
X19059819Y29933665D01*
X21235335Y32109181D01*
X21275563Y32136061D01*
X21323016Y32145500D01*
X25276000Y32145500D01*
X25338000Y32128887D01*
X25383387Y32083500D01*
X25400000Y32021500D01*
X25400000Y30220000D01*
X25383387Y30158000D01*
X25338000Y30112613D01*
X25276000Y30096000D01*
X23238326Y30096000D01*
X23225450Y30092550D01*
X23222000Y30079674D01*
X23222000Y27612326D01*
X23225450Y27599451D01*
X23238326Y27596000D01*
X25276000Y27596000D01*
X25338000Y27579387D01*
X25383387Y27534000D01*
X25400000Y27472000D01*
X25400000Y13600000D01*
X25383387Y13538000D01*
X25338000Y13492613D01*
X25276000Y13476000D01*
X23238326Y13476000D01*
X23225450Y13472550D01*
X23222000Y13459674D01*
X23222000Y10992326D01*
X23225450Y10979451D01*
X23238326Y10976000D01*
X25276000Y10976000D01*
X25338000Y10959387D01*
X25383387Y10914000D01*
X25400000Y10852000D01*
X25400000Y9050500D01*
X25383387Y8988500D01*
X25338000Y8943113D01*
X25276000Y8926500D01*
X20412252Y8926500D01*
X20406277Y8925312D01*
X20406271Y8925311D01*
X20365747Y8917250D01*
X20365745Y8917250D01*
X20353769Y8914867D01*
X20343618Y8908085D01*
X20343615Y8908083D01*
X20297601Y8877337D01*
X20297598Y8877335D01*
X20287448Y8870552D01*
X20280665Y8860402D01*
X20280663Y8860399D01*
X20249919Y8814388D01*
X20249917Y8814385D01*
X20243133Y8804231D01*
X20240749Y8792250D01*
X20239010Y8788049D01*
X20212130Y8747819D01*
X20171901Y8720939D01*
X20124448Y8711500D01*
X16002016Y8711500D01*
X15954563Y8720939D01*
X15914335Y8747819D01*
X14233819Y10428335D01*
X14206939Y10468563D01*
X14197500Y10516016D01*
X14197500Y11431482D01*
X19932000Y11431482D01*
X19932353Y11424886D01*
X19937573Y11376333D01*
X19941111Y11361359D01*
X19985547Y11242223D01*
X19993962Y11226811D01*
X20069498Y11125908D01*
X20081907Y11113499D01*
X20182810Y11037963D01*
X20198222Y11029548D01*
X20317358Y10985112D01*
X20332332Y10981574D01*
X20380885Y10976354D01*
X20387482Y10976000D01*
X22705674Y10976000D01*
X22718549Y10979451D01*
X22722000Y10992326D01*
X22722000Y11959674D01*
X22718549Y11972550D01*
X22705674Y11976000D01*
X19948326Y11976000D01*
X19935450Y11972550D01*
X19932000Y11959674D01*
X19932000Y11431482D01*
X14197500Y11431482D01*
X14197500Y12492326D01*
X19932000Y12492326D01*
X19935450Y12479451D01*
X19948326Y12476000D01*
X22705674Y12476000D01*
X22718549Y12479451D01*
X22722000Y12492326D01*
X22722000Y13459674D01*
X22718549Y13472550D01*
X22705674Y13476000D01*
X20387482Y13476000D01*
X20380885Y13475647D01*
X20332332Y13470427D01*
X20317358Y13466889D01*
X20198222Y13422453D01*
X20182810Y13414038D01*
X20081907Y13338502D01*
X20069498Y13326093D01*
X19993962Y13225190D01*
X19985547Y13209778D01*
X19941111Y13090642D01*
X19937573Y13075668D01*
X19932353Y13027115D01*
X19932000Y13020518D01*
X19932000Y12492326D01*
X14197500Y12492326D01*
X14197500Y16768383D01*
X14198809Y16786355D01*
X14202194Y16809463D01*
X14197972Y16857721D01*
X14197500Y16868528D01*
X14197500Y16870229D01*
X14197500Y16873839D01*
X14193979Y16903960D01*
X14193612Y16907551D01*
X14193387Y16910122D01*
X14187209Y16980744D01*
X14184934Y16987607D01*
X14184344Y16990467D01*
X14184245Y16991079D01*
X14184228Y16991154D01*
X14184062Y16991741D01*
X14183385Y16994598D01*
X14182547Y17001773D01*
X14157415Y17070821D01*
X14156232Y17074226D01*
X14133127Y17143952D01*
X14129335Y17150100D01*
X14128089Y17152772D01*
X14127854Y17153339D01*
X14127838Y17153373D01*
X14127527Y17153929D01*
X14126214Y17156543D01*
X14123741Y17163339D01*
X14083353Y17224744D01*
X14081469Y17227701D01*
X14042866Y17290288D01*
X14037756Y17295398D01*
X14035928Y17297710D01*
X14035574Y17298200D01*
X14035528Y17298257D01*
X14035119Y17298703D01*
X14033229Y17300956D01*
X14029261Y17306989D01*
X13975819Y17357409D01*
X13973232Y17359922D01*
X10769638Y20563516D01*
X10746106Y20596356D01*
X10734381Y20635011D01*
X10732044Y20652762D01*
X10671536Y20798841D01*
X10575282Y20924282D01*
X10449841Y21020536D01*
X10303762Y21081044D01*
X10279463Y21084244D01*
X10264678Y21086190D01*
X10203957Y21111861D01*
X10191411Y21121781D01*
X10185749Y21126258D01*
X10179206Y21129309D01*
X10179203Y21129311D01*
X10036470Y21195868D01*
X10036467Y21195869D01*
X10029922Y21198921D01*
X10009011Y21203239D01*
X9868613Y21232229D01*
X9868607Y21232230D01*
X9861539Y21233689D01*
X9854321Y21233479D01*
X9696896Y21228899D01*
X9696888Y21228898D01*
X9689677Y21228688D01*
X9682705Y21226820D01*
X9682699Y21226819D01*
X9530574Y21186057D01*
X9530569Y21186056D01*
X9523601Y21184188D01*
X9517248Y21180763D01*
X9517244Y21180761D01*
X9372263Y21102588D01*
X9371644Y21103736D01*
X9325083Y21085632D01*
X9298299Y21082106D01*
X9298294Y21082105D01*
X9290238Y21081044D01*
X9282731Y21077935D01*
X9282725Y21077933D01*
X9151666Y21023646D01*
X9151662Y21023645D01*
X9144159Y21020536D01*
X9137714Y21015592D01*
X9137711Y21015589D01*
X9025164Y20929229D01*
X9025160Y20929226D01*
X9018718Y20924282D01*
X9013774Y20917840D01*
X9013771Y20917836D01*
X8927411Y20805289D01*
X8927408Y20805286D01*
X8922464Y20798841D01*
X8919355Y20791338D01*
X8919354Y20791334D01*
X8865066Y20660272D01*
X8865064Y20660267D01*
X8861956Y20652762D01*
X8860896Y20644711D01*
X8860894Y20644703D01*
X8842702Y20506518D01*
X8841318Y20496000D01*
X8842379Y20487941D01*
X8860894Y20347298D01*
X8860895Y20347292D01*
X8861956Y20339238D01*
X8922464Y20193159D01*
X9018718Y20067718D01*
X9144159Y19971464D01*
X9290238Y19910956D01*
X9307989Y19908619D01*
X9346644Y19896894D01*
X9379484Y19873362D01*
X10559527Y18693319D01*
X10592420Y18634585D01*
X10589777Y18567320D01*
X10552378Y18511348D01*
X10491244Y18483165D01*
X10424393Y18491077D01*
X10311274Y18537933D01*
X10311270Y18537935D01*
X10303762Y18541044D01*
X10295703Y18542105D01*
X10295700Y18542106D01*
X10264625Y18546197D01*
X10218812Y18561749D01*
X10096555Y18632334D01*
X10096552Y18632335D01*
X10090300Y18635945D01*
X10060209Y18644954D01*
X9932508Y18683186D01*
X9932502Y18683188D01*
X9925588Y18685257D01*
X9918381Y18685677D01*
X9918374Y18685678D01*
X9761152Y18694835D01*
X9761144Y18694835D01*
X9753943Y18695254D01*
X9746831Y18694001D01*
X9746830Y18694000D01*
X9591732Y18666653D01*
X9591724Y18666651D01*
X9584620Y18665398D01*
X9577996Y18662542D01*
X9577990Y18662539D01*
X9433377Y18600159D01*
X9433369Y18600155D01*
X9426747Y18597298D01*
X9420957Y18592989D01*
X9420954Y18592986D01*
X9390151Y18570055D01*
X9332296Y18546582D01*
X9298296Y18542105D01*
X9298295Y18542105D01*
X9290238Y18541044D01*
X9282728Y18537934D01*
X9282727Y18537933D01*
X9151666Y18483646D01*
X9151662Y18483645D01*
X9144159Y18480536D01*
X9137714Y18475592D01*
X9137711Y18475589D01*
X9025164Y18389229D01*
X9025160Y18389226D01*
X9018718Y18384282D01*
X9013774Y18377840D01*
X9013771Y18377836D01*
X8927411Y18265289D01*
X8927408Y18265286D01*
X8922464Y18258841D01*
X8919355Y18251338D01*
X8919354Y18251334D01*
X8865066Y18120272D01*
X8865064Y18120267D01*
X8861956Y18112762D01*
X8860896Y18104711D01*
X8860894Y18104703D01*
X8842702Y17966518D01*
X8841318Y17956000D01*
X8842379Y17947941D01*
X8860894Y17807298D01*
X8860895Y17807292D01*
X8861956Y17799238D01*
X8922464Y17653159D01*
X9018718Y17527718D01*
X9025164Y17522772D01*
X9025184Y17522752D01*
X9052062Y17482524D01*
X9061500Y17435073D01*
X9061500Y12185016D01*
X9052061Y12137563D01*
X9025181Y12097335D01*
X5813471Y8885626D01*
X5757884Y8853532D01*
X5693696Y8853532D01*
X5658685Y8873746D01*
X5656552Y8870552D01*
X5600384Y8908083D01*
X5600383Y8908084D01*
X5590231Y8914867D01*
X5578253Y8917250D01*
X5578252Y8917250D01*
X5537728Y8925311D01*
X5537723Y8925312D01*
X5531748Y8926500D01*
X632000Y8926500D01*
X570000Y8943113D01*
X524613Y8988500D01*
X508000Y9050500D01*
X508000Y10852000D01*
X524613Y10914000D01*
X570000Y10959387D01*
X632000Y10976000D01*
X2705674Y10976000D01*
X2718549Y10979451D01*
X2722000Y10992326D01*
X3222000Y10992326D01*
X3225450Y10979451D01*
X3238326Y10976000D01*
X5556518Y10976000D01*
X5563114Y10976354D01*
X5611667Y10981574D01*
X5626641Y10985112D01*
X5745777Y11029548D01*
X5761189Y11037963D01*
X5862092Y11113499D01*
X5874501Y11125908D01*
X5950037Y11226811D01*
X5958452Y11242223D01*
X6002888Y11361359D01*
X6006426Y11376333D01*
X6011646Y11424886D01*
X6012000Y11431482D01*
X6012000Y11959674D01*
X6008549Y11972550D01*
X5995674Y11976000D01*
X3238326Y11976000D01*
X3225450Y11972550D01*
X3222000Y11959674D01*
X3222000Y10992326D01*
X2722000Y10992326D01*
X2722000Y12492326D01*
X3222000Y12492326D01*
X3225450Y12479451D01*
X3238326Y12476000D01*
X5995674Y12476000D01*
X6008549Y12479451D01*
X6012000Y12492326D01*
X6012000Y13020518D01*
X6011646Y13027115D01*
X6006426Y13075668D01*
X6002888Y13090642D01*
X5958452Y13209778D01*
X5950037Y13225190D01*
X5874501Y13326093D01*
X5862092Y13338502D01*
X5761189Y13414038D01*
X5745777Y13422453D01*
X5626641Y13466889D01*
X5611667Y13470427D01*
X5563114Y13475647D01*
X5556518Y13476000D01*
X3238326Y13476000D01*
X3225450Y13472550D01*
X3222000Y13459674D01*
X3222000Y12492326D01*
X2722000Y12492326D01*
X2722000Y13459674D01*
X2718549Y13472550D01*
X2705674Y13476000D01*
X632000Y13476000D01*
X570000Y13492613D01*
X524613Y13538000D01*
X508000Y13600000D01*
X508000Y22152650D01*
X15621673Y22152650D01*
X15632218Y22148363D01*
X15746614Y22136339D01*
X15753078Y22136000D01*
X16540922Y22136000D01*
X16547385Y22136339D01*
X16661780Y22148362D01*
X16672325Y22152650D01*
X16666827Y22162620D01*
X16158542Y22670905D01*
X16147000Y22677569D01*
X16135456Y22670904D01*
X15627172Y22162621D01*
X15621673Y22152650D01*
X508000Y22152650D01*
X508000Y27472000D01*
X524613Y27534000D01*
X570000Y27579387D01*
X632000Y27596000D01*
X2705674Y27596000D01*
X2718549Y27599451D01*
X2722000Y27612326D01*
X3222000Y27612326D01*
X3225450Y27599451D01*
X3238326Y27596000D01*
X5556518Y27596000D01*
X5563114Y27596354D01*
X5611667Y27601574D01*
X5626641Y27605112D01*
X5745777Y27649548D01*
X5761189Y27657963D01*
X5862092Y27733499D01*
X5874501Y27745908D01*
X5950037Y27846811D01*
X5958452Y27862223D01*
X6002888Y27981359D01*
X6006426Y27996333D01*
X6011646Y28044886D01*
X6012000Y28051482D01*
X6012000Y28579674D01*
X6008549Y28592550D01*
X5995674Y28596000D01*
X3238326Y28596000D01*
X3225450Y28592550D01*
X3222000Y28579674D01*
X3222000Y27612326D01*
X2722000Y27612326D01*
X2722000Y29112326D01*
X3222000Y29112326D01*
X3225450Y29099451D01*
X3238326Y29096000D01*
X5995674Y29096000D01*
X6008549Y29099451D01*
X6012000Y29112326D01*
X6012000Y29640518D01*
X6011646Y29647115D01*
X6006426Y29695668D01*
X6002888Y29710642D01*
X5958452Y29829778D01*
X5950037Y29845190D01*
X5874501Y29946093D01*
X5862092Y29958502D01*
X5761189Y30034038D01*
X5745777Y30042453D01*
X5626641Y30086889D01*
X5611667Y30090427D01*
X5563114Y30095647D01*
X5556518Y30096000D01*
X3238326Y30096000D01*
X3225450Y30092550D01*
X3222000Y30079674D01*
X3222000Y29112326D01*
X2722000Y29112326D01*
X2722000Y30079674D01*
X2718549Y30092550D01*
X2705674Y30096000D01*
X632000Y30096000D01*
X570000Y30112613D01*
X524613Y30158000D01*
X508000Y30220000D01*
X508000Y32021500D01*
X524613Y32083500D01*
X570000Y32128887D01*
X632000Y32145500D01*
X5525652Y32145500D01*
X5531748Y32145500D01*
X5590231Y32157133D01*
X5656552Y32201448D01*
X5663337Y32211603D01*
X5671973Y32220238D01*
X5673153Y32219058D01*
X5699205Y32243868D01*
X5750803Y32260919D01*
X5804737Y32254270D01*
X5850648Y32225198D01*
X9025181Y29050665D01*
X9052061Y29010437D01*
X9061500Y28962984D01*
X9061500Y23556927D01*
X9052062Y23509476D01*
X9025184Y23469248D01*
X9025164Y23469229D01*
X9018718Y23464282D01*
X9013771Y23457836D01*
X9013769Y23457833D01*
X8927411Y23345289D01*
X8927408Y23345286D01*
X8922464Y23338841D01*
X8919355Y23331338D01*
X8919354Y23331334D01*
X8865066Y23200272D01*
X8865064Y23200267D01*
X8861956Y23192762D01*
X8860896Y23184711D01*
X8860894Y23184703D01*
X8852915Y23124092D01*
X8841318Y23036000D01*
X8842379Y23027941D01*
X8860894Y22887298D01*
X8860895Y22887292D01*
X8861956Y22879238D01*
X8922464Y22733159D01*
X9018718Y22607718D01*
X9144159Y22511464D01*
X9290238Y22450956D01*
X9329374Y22445804D01*
X9375182Y22430255D01*
X9503700Y22356055D01*
X9668412Y22306743D01*
X9840057Y22296746D01*
X10009380Y22326602D01*
X10167253Y22394702D01*
X10203844Y22421944D01*
X10261707Y22445420D01*
X10303762Y22450956D01*
X10449841Y22511464D01*
X10575282Y22607718D01*
X10671536Y22733159D01*
X10732044Y22879238D01*
X10741085Y22947908D01*
X14897000Y22947908D01*
X14898352Y22935046D01*
X14934984Y22762706D01*
X14938976Y22750421D01*
X15010641Y22589457D01*
X15017101Y22578268D01*
X15120668Y22435720D01*
X15129313Y22426120D01*
X15146138Y22410970D01*
X15157742Y22404930D01*
X15169016Y22411571D01*
X15781904Y23024458D01*
X15788568Y23036000D01*
X15781904Y23047543D01*
X15169016Y23660431D01*
X15157742Y23667072D01*
X15146138Y23661031D01*
X15129311Y23645880D01*
X15120668Y23636280D01*
X15017101Y23493734D01*
X15010642Y23482546D01*
X14938976Y23321580D01*
X14934984Y23309295D01*
X14898352Y23136955D01*
X14897000Y23124092D01*
X14897000Y22947908D01*
X10741085Y22947908D01*
X10752682Y23036000D01*
X10732044Y23192762D01*
X10671536Y23338841D01*
X10575282Y23464282D01*
X10568835Y23469229D01*
X10568816Y23469248D01*
X10541938Y23509476D01*
X10532500Y23556927D01*
X10532500Y23919353D01*
X15621672Y23919353D01*
X15627170Y23909383D01*
X16135457Y23401096D01*
X16147000Y23394432D01*
X16158542Y23401096D01*
X16666828Y23909383D01*
X16672326Y23919353D01*
X16661783Y23923639D01*
X16547386Y23935662D01*
X16540922Y23936000D01*
X15753078Y23936000D01*
X15746613Y23935662D01*
X15632215Y23923639D01*
X15621672Y23919353D01*
X10532500Y23919353D01*
X10532500Y29256383D01*
X10533809Y29274355D01*
X10537194Y29297463D01*
X10532972Y29345721D01*
X10532500Y29356528D01*
X10532500Y29358229D01*
X10532500Y29361839D01*
X10528979Y29391960D01*
X10528612Y29395551D01*
X10528387Y29398122D01*
X10522209Y29468744D01*
X10519934Y29475607D01*
X10519344Y29478467D01*
X10519245Y29479079D01*
X10519228Y29479154D01*
X10519062Y29479741D01*
X10518385Y29482598D01*
X10517547Y29489773D01*
X10492415Y29558821D01*
X10491232Y29562226D01*
X10468127Y29631952D01*
X10464335Y29638100D01*
X10463089Y29640772D01*
X10462854Y29641339D01*
X10462838Y29641373D01*
X10462527Y29641929D01*
X10461214Y29644543D01*
X10458741Y29651339D01*
X10418353Y29712744D01*
X10416469Y29715701D01*
X10377866Y29778288D01*
X10372756Y29783398D01*
X10370928Y29785710D01*
X10370574Y29786200D01*
X10370528Y29786257D01*
X10370119Y29786703D01*
X10368229Y29788956D01*
X10364261Y29794989D01*
X10310819Y29845409D01*
X10308232Y29847922D01*
X6584354Y33571800D01*
X6572571Y33585434D01*
X6562939Y33598372D01*
X6558625Y33604167D01*
X6521515Y33635307D01*
X6513539Y33642615D01*
X6512337Y33643817D01*
X6512336Y33643818D01*
X6509785Y33646369D01*
X6506957Y33648605D01*
X6506947Y33648614D01*
X6485977Y33665195D01*
X6483180Y33667473D01*
X6432450Y33710041D01*
X6432447Y33710043D01*
X6426915Y33714685D01*
X6420455Y33717930D01*
X6418003Y33719542D01*
X6417502Y33719904D01*
X6417450Y33719937D01*
X6416924Y33720231D01*
X6414410Y33721782D01*
X6408749Y33726258D01*
X6402207Y33729309D01*
X6402205Y33729310D01*
X6342165Y33757307D01*
X6338920Y33758878D01*
X6279721Y33788609D01*
X6279715Y33788611D01*
X6273268Y33791849D01*
X6266241Y33793515D01*
X6263470Y33794523D01*
X6262906Y33794757D01*
X6262849Y33794777D01*
X6262270Y33794941D01*
X6259461Y33795872D01*
X6252922Y33798921D01*
X6245853Y33800381D01*
X6245852Y33800381D01*
X6180996Y33813773D01*
X6177477Y33814553D01*
X6112990Y33829837D01*
X6112979Y33829839D01*
X6105968Y33831500D01*
X6098756Y33831500D01*
X6095812Y33831844D01*
X6095225Y33831939D01*
X6095160Y33831946D01*
X6094543Y33831972D01*
X6091612Y33832229D01*
X6084539Y33833689D01*
X6077321Y33833479D01*
X6011100Y33831552D01*
X6007493Y33831500D01*
X5819552Y33831500D01*
X5772099Y33840939D01*
X5731870Y33867819D01*
X5704990Y33908049D01*
X5703250Y33912249D01*
X5700867Y33924231D01*
X5656552Y33990552D01*
X5590231Y34034867D01*
X5578253Y34037250D01*
X5578252Y34037250D01*
X5537728Y34045311D01*
X5537723Y34045312D01*
X5531748Y34046500D01*
X632000Y34046500D01*
X570000Y34063113D01*
X524613Y34108500D01*
X508000Y34170500D01*
X508000Y35972000D01*
X524613Y36034000D01*
X570000Y36079387D01*
X632000Y36096000D01*
X2705674Y36096000D01*
X2718549Y36099451D01*
X2722000Y36112326D01*
X3222000Y36112326D01*
X3225450Y36099451D01*
X3238326Y36096000D01*
X5556518Y36096000D01*
X5563114Y36096354D01*
X5611667Y36101574D01*
X5626641Y36105112D01*
X5745777Y36149548D01*
X5761189Y36157963D01*
X5862092Y36233499D01*
X5874501Y36245908D01*
X5950037Y36346811D01*
X5958452Y36362223D01*
X6002888Y36481359D01*
X6006426Y36496333D01*
X6011646Y36544886D01*
X6012000Y36551482D01*
X19932000Y36551482D01*
X19932353Y36544886D01*
X19937573Y36496333D01*
X19941111Y36481359D01*
X19985547Y36362223D01*
X19993962Y36346811D01*
X20069498Y36245908D01*
X20081907Y36233499D01*
X20182810Y36157963D01*
X20198222Y36149548D01*
X20317358Y36105112D01*
X20332332Y36101574D01*
X20380885Y36096354D01*
X20387482Y36096000D01*
X22705674Y36096000D01*
X22718549Y36099451D01*
X22722000Y36112326D01*
X22722000Y37079674D01*
X22718549Y37092550D01*
X22705674Y37096000D01*
X19948326Y37096000D01*
X19935450Y37092550D01*
X19932000Y37079674D01*
X19932000Y36551482D01*
X6012000Y36551482D01*
X6012000Y37079674D01*
X6008549Y37092550D01*
X5995674Y37096000D01*
X3238326Y37096000D01*
X3225450Y37092550D01*
X3222000Y37079674D01*
X3222000Y36112326D01*
X2722000Y36112326D01*
X2722000Y37612326D01*
X3222000Y37612326D01*
X3225450Y37599451D01*
X3238326Y37596000D01*
X5995674Y37596000D01*
X6008549Y37599451D01*
X6012000Y37612326D01*
X19932000Y37612326D01*
X19935450Y37599451D01*
X19948326Y37596000D01*
X22705674Y37596000D01*
X22718549Y37599451D01*
X22722000Y37612326D01*
X22722000Y38579674D01*
X22718549Y38592550D01*
X22705674Y38596000D01*
X20387482Y38596000D01*
X20380885Y38595647D01*
X20332332Y38590427D01*
X20317358Y38586889D01*
X20198222Y38542453D01*
X20182810Y38534038D01*
X20081907Y38458502D01*
X20069498Y38446093D01*
X19993962Y38345190D01*
X19985547Y38329778D01*
X19941111Y38210642D01*
X19937573Y38195668D01*
X19932353Y38147115D01*
X19932000Y38140518D01*
X19932000Y37612326D01*
X6012000Y37612326D01*
X6012000Y38140518D01*
X6011646Y38147115D01*
X6006426Y38195668D01*
X6002888Y38210642D01*
X5958452Y38329778D01*
X5950037Y38345190D01*
X5874501Y38446093D01*
X5862092Y38458502D01*
X5761189Y38534038D01*
X5745777Y38542453D01*
X5626641Y38586889D01*
X5611667Y38590427D01*
X5563114Y38595647D01*
X5556518Y38596000D01*
X3238326Y38596000D01*
X3225450Y38592550D01*
X3222000Y38579674D01*
X3222000Y37612326D01*
X2722000Y37612326D01*
X2722000Y38579674D01*
X2718549Y38592550D01*
X2705674Y38596000D01*
X632000Y38596000D01*
X570000Y38612613D01*
X524613Y38658000D01*
X508000Y38720000D01*
X508000Y39500000D01*
X524613Y39562000D01*
X570000Y39607387D01*
X632000Y39624000D01*
X25276000Y39624000D01*
X25338000Y39607387D01*
G37*
%TD.AperFunction*%
%TD*%
M02*
