M48
; DRILL file {KiCad (7.0.0)} date Sun Sep 17 18:36:36 2023
; FORMAT={-:-/ absolute / metric / decimal}
; #@! TF.CreationDate,2023-09-17T18:36:36+02:00
; #@! TF.GenerationSoftware,Kicad,Pcbnew,(7.0.0)
; #@! TF.FileFunction,Plated,1,2,PTH
FMAT,2
METRIC
; #@! TA.AperFunction,Plated,PTH,ViaDrill
T1C0.400
%
G90
G05
T1
X1.524Y25.4
X1.524Y22.86
X1.524Y20.32
X1.524Y17.78
X1.524Y15.24
X6.35Y37.338
X6.35Y28.702
X6.35Y12.192
X6.35Y3.81
X8.128Y38.608
X8.128Y2.032
X10.668Y38.608
X10.668Y2.032
X13.208Y38.608
X13.208Y2.032
X15.748Y38.608
X15.748Y2.032
X18.288Y38.608
X18.288Y2.032
X19.558Y37.338
X19.558Y28.702
X19.558Y12.192
X19.558Y3.81
X24.384Y25.4
X24.384Y22.86
X24.384Y20.32
X24.384Y17.78
X24.384Y15.24
T0
M30
