G04*
G04 #@! TF.GenerationSoftware,Altium Limited,Altium Designer,25.6.2 (33)*
G04*
G04 Layer_Physical_Order=1*
G04 Layer_Color=255*
%FSLAX44Y44*%
%MOMM*%
G71*
G04*
G04 #@! TF.SameCoordinates,406FDB3A-8374-4AAD-B88D-9ED9193208D5*
G04*
G04*
G04 #@! TF.FilePolarity,Positive*
G04*
G01*
G75*
%ADD12R,5.0000X1.4000*%
%ADD13R,5.0000X0.9000*%
%ADD14R,1.0604X0.7120*%
%ADD19C,0.1441*%
%ADD20C,0.4500*%
G36*
X230000Y542451D02*
X231719D01*
X235090Y541781D01*
X238266Y540465D01*
X241124Y538555D01*
X243555Y536124D01*
X245465Y533266D01*
X246780Y530090D01*
X247451Y526719D01*
X247451Y525000D01*
Y404000D01*
X200188D01*
X200174Y404004D01*
X200145Y404000D01*
X200074D01*
X200030Y404009D01*
X199987Y404000D01*
X198000D01*
Y402127D01*
X197996Y402113D01*
X197958Y401566D01*
X197889Y401277D01*
X197802Y401082D01*
X197696Y400935D01*
X197544Y400797D01*
X197303Y400650D01*
X196937Y400503D01*
X196431Y400377D01*
X196260Y400355D01*
X195000Y400330D01*
Y400330D01*
X191679Y399893D01*
X188585Y398611D01*
X185928Y396572D01*
X183889Y393915D01*
X182607Y390821D01*
X182170Y387500D01*
X182226D01*
Y257100D01*
X182214D01*
X181968Y255233D01*
X181248Y253493D01*
X180101Y251999D01*
X178607Y250852D01*
X176867Y250131D01*
X175000Y249886D01*
Y249874D01*
X170052D01*
X169440Y249886D01*
X168326Y249963D01*
X167385Y250085D01*
X166628Y250244D01*
X166067Y250423D01*
X165711Y250592D01*
X165562Y250701D01*
X165544Y250831D01*
Y252660D01*
X163557D01*
X163514Y252669D01*
X163470Y252660D01*
X150940D01*
Y241540D01*
X163470D01*
X163514Y241531D01*
X163557Y241540D01*
X165544D01*
Y243369D01*
X165562Y243499D01*
X165711Y243608D01*
X166067Y243777D01*
X166628Y243956D01*
X167353Y244108D01*
X169469Y244314D01*
X170052Y244326D01*
X175000D01*
X175000Y244326D01*
Y244270D01*
X178321Y244707D01*
X181415Y245989D01*
X184072Y248028D01*
X186111Y250685D01*
X187393Y253779D01*
X187830Y257100D01*
X187774D01*
X187774Y257100D01*
Y387500D01*
X187786D01*
X188032Y389367D01*
X188752Y391107D01*
X189899Y392601D01*
X191393Y393748D01*
X193133Y394468D01*
X195000Y394714D01*
X195000Y394714D01*
X196242Y394648D01*
X196431Y394623D01*
X196937Y394497D01*
X197303Y394350D01*
X197544Y394203D01*
X197696Y394065D01*
X197802Y393918D01*
X197889Y393723D01*
X197958Y393434D01*
X197996Y392887D01*
X198000Y392873D01*
Y391000D01*
X199987D01*
X200030Y390991D01*
X200074Y391000D01*
X200145D01*
X200174Y390996D01*
X200187Y391000D01*
X247451D01*
X247451Y154000D01*
X200074D01*
X200030Y154009D01*
X199987Y154000D01*
X198000D01*
Y152159D01*
X197953Y151693D01*
X197891Y151510D01*
X197794Y151358D01*
X197609Y151180D01*
X197276Y150968D01*
X196760Y150748D01*
X196050Y150549D01*
X195152Y150394D01*
X194074Y150295D01*
X193313Y150274D01*
X150400D01*
X150281Y150250D01*
X145979Y150674D01*
X141728Y151963D01*
X137810Y154058D01*
X134376Y156876D01*
X131558Y160310D01*
X129463Y164228D01*
X128174Y168479D01*
X127750Y172781D01*
X127774Y172900D01*
Y251472D01*
X127809Y252723D01*
X127809Y252723D01*
X127809Y252723D01*
X127393Y256950D01*
X126093Y261234D01*
X123983Y265182D01*
X121143Y268642D01*
X117683Y271482D01*
X113735Y273592D01*
X109451Y274892D01*
X104996Y275330D01*
Y275274D01*
X104996Y275274D01*
X103568D01*
X102956Y275286D01*
X101842Y275363D01*
X100901Y275485D01*
X100144Y275644D01*
X99583Y275823D01*
X99227Y275993D01*
X99078Y276101D01*
X99060Y276231D01*
Y278060D01*
X97073D01*
X97029Y278069D01*
X96986Y278060D01*
X84456D01*
Y266940D01*
X96986D01*
X97029Y266931D01*
X97073Y266940D01*
X99060D01*
Y268769D01*
X99078Y268899D01*
X99228Y269007D01*
X99583Y269177D01*
X100144Y269356D01*
X100869Y269508D01*
X102985Y269714D01*
X103568Y269726D01*
X104996D01*
X105027Y269732D01*
X108359Y269404D01*
X111594Y268423D01*
X114574Y266830D01*
X117187Y264686D01*
X119331Y262073D01*
X120924Y259093D01*
X121905Y255858D01*
X122220Y252667D01*
X122220Y252667D01*
X122220D01*
X122226Y252660D01*
Y172900D01*
X122193D01*
X122540Y168487D01*
X123573Y164183D01*
X125267Y160094D01*
X127580Y156320D01*
X130454Y152954D01*
X133820Y150080D01*
X137594Y147767D01*
X141683Y146073D01*
X145987Y145040D01*
X150400Y144693D01*
Y144726D01*
X193313D01*
X194074Y144705D01*
X195152Y144606D01*
X196050Y144451D01*
X196760Y144252D01*
X197276Y144032D01*
X197609Y143820D01*
X197794Y143642D01*
X197891Y143490D01*
X197953Y143307D01*
X198000Y142841D01*
Y141000D01*
X199987D01*
X200030Y140991D01*
X200074Y141000D01*
X247451D01*
Y20000D01*
Y18281D01*
X246780Y14910D01*
X245465Y11734D01*
X243555Y8875D01*
X241124Y6445D01*
X238266Y4535D01*
X235090Y3219D01*
X231719Y2549D01*
X230000Y2549D01*
X20000Y2549D01*
X18281D01*
X14910Y3219D01*
X11734Y4535D01*
X8875Y6445D01*
X6445Y8875D01*
X4535Y11734D01*
X3219Y14910D01*
X2549Y18281D01*
X2549Y20000D01*
X2549Y141000D01*
X49812D01*
X49826Y140996D01*
X49855Y141000D01*
X49926D01*
X49970Y140991D01*
X50013Y141000D01*
X52000D01*
Y142873D01*
X52004Y142887D01*
X52042Y143434D01*
X52111Y143723D01*
X52198Y143918D01*
X52304Y144065D01*
X52456Y144203D01*
X52697Y144350D01*
X53063Y144497D01*
X53569Y144623D01*
X53740Y144645D01*
X55000Y144670D01*
Y144670D01*
X58321Y145107D01*
X61415Y146389D01*
X64072Y148428D01*
X66111Y151085D01*
X67393Y154179D01*
X67830Y157500D01*
X67774D01*
Y237100D01*
X67786D01*
X68032Y238967D01*
X68752Y240707D01*
X69899Y242201D01*
X71393Y243348D01*
X73133Y244069D01*
X75000Y244314D01*
Y244326D01*
X79948D01*
X80560Y244314D01*
X81674Y244237D01*
X82615Y244115D01*
X83372Y243956D01*
X83933Y243777D01*
X84289Y243608D01*
X84438Y243499D01*
X84456Y243369D01*
Y241540D01*
X86443D01*
X86487Y241531D01*
X86530Y241540D01*
X99060D01*
Y252660D01*
X86530D01*
X86487Y252669D01*
X86443Y252660D01*
X84456D01*
Y250831D01*
X84438Y250701D01*
X84289Y250592D01*
X83933Y250423D01*
X83372Y250244D01*
X82647Y250092D01*
X80531Y249886D01*
X79948Y249874D01*
X75000D01*
X75000Y249874D01*
Y249930D01*
X71679Y249493D01*
X68585Y248211D01*
X65928Y246172D01*
X63889Y243515D01*
X62607Y240421D01*
X62170Y237100D01*
X62226D01*
X62226Y237100D01*
Y157500D01*
X62214D01*
X61968Y155633D01*
X61248Y153893D01*
X60101Y152399D01*
X58607Y151252D01*
X56867Y150532D01*
X55000Y150286D01*
X55000Y150286D01*
X53758Y150352D01*
X53569Y150377D01*
X53063Y150503D01*
X52697Y150650D01*
X52456Y150797D01*
X52304Y150935D01*
X52198Y151082D01*
X52111Y151277D01*
X52042Y151566D01*
X52004Y152113D01*
X52000Y152127D01*
Y154000D01*
X50013D01*
X49970Y154009D01*
X49926Y154000D01*
X49855D01*
X49826Y154004D01*
X49812Y154000D01*
X2549D01*
X2549Y391000D01*
X49812D01*
X49826Y390996D01*
X49855Y391000D01*
X49926D01*
X49970Y390991D01*
X50013Y391000D01*
X52000D01*
Y392873D01*
X52004Y392887D01*
X52042Y393434D01*
X52111Y393723D01*
X52198Y393918D01*
X52304Y394065D01*
X52456Y394203D01*
X52697Y394350D01*
X53063Y394497D01*
X53569Y394623D01*
X53758Y394648D01*
X55000Y394714D01*
X55000Y394714D01*
X55000Y394714D01*
X56867Y394468D01*
X58607Y393748D01*
X60101Y392601D01*
X61248Y391107D01*
X61968Y389367D01*
X62214Y387500D01*
X62226D01*
Y307900D01*
X62226Y307900D01*
X62170D01*
X62607Y304579D01*
X63889Y301485D01*
X65928Y298828D01*
X68585Y296789D01*
X71679Y295507D01*
X75000Y295070D01*
Y295126D01*
X75000Y295126D01*
X79948D01*
X80560Y295114D01*
X81674Y295037D01*
X82615Y294915D01*
X83372Y294756D01*
X83933Y294577D01*
X84289Y294408D01*
X84438Y294299D01*
X84456Y294169D01*
Y292340D01*
X86443D01*
X86487Y292331D01*
X86530Y292340D01*
X99060D01*
Y303460D01*
X86530D01*
X86487Y303469D01*
X86443Y303460D01*
X84456D01*
Y301631D01*
X84438Y301501D01*
X84289Y301392D01*
X83933Y301223D01*
X83372Y301044D01*
X82647Y300892D01*
X80531Y300686D01*
X79948Y300674D01*
X75000D01*
Y300686D01*
X73133Y300932D01*
X71393Y301652D01*
X69899Y302799D01*
X68752Y304293D01*
X68032Y306033D01*
X67786Y307900D01*
X67774D01*
Y387500D01*
X67830D01*
X67393Y390821D01*
X66111Y393915D01*
X64072Y396572D01*
X61415Y398611D01*
X58321Y399893D01*
X55000Y400330D01*
X55000Y400330D01*
X53740Y400355D01*
X53569Y400377D01*
X53063Y400503D01*
X52697Y400650D01*
X52456Y400797D01*
X52304Y400936D01*
X52198Y401082D01*
X52111Y401277D01*
X52042Y401566D01*
X52004Y402113D01*
X52000Y402127D01*
Y404000D01*
X50013D01*
X49970Y404009D01*
X49926Y404000D01*
X49855D01*
X49826Y404004D01*
X49812Y404000D01*
X2549D01*
X2549Y525000D01*
Y526719D01*
X3220Y530090D01*
X4535Y533266D01*
X6445Y536124D01*
X8875Y538555D01*
X11734Y540465D01*
X14910Y541781D01*
X18281Y542451D01*
X20000Y542451D01*
X230000Y542451D01*
D02*
G37*
G36*
X200030Y393031D02*
X199980Y393743D01*
X199829Y394380D01*
X199578Y394943D01*
X199226Y395430D01*
X198773Y395842D01*
X198220Y396180D01*
X197565Y396442D01*
X196811Y396630D01*
X195956Y396742D01*
X195000Y396780D01*
Y398220D01*
X195956Y398258D01*
X196811Y398370D01*
X197565Y398558D01*
X198220Y398820D01*
X198773Y399158D01*
X199226Y399570D01*
X199578Y400057D01*
X199829Y400620D01*
X199980Y401257D01*
X200030Y401969D01*
Y393031D01*
D02*
G37*
G36*
X50020Y401257D02*
X50171Y400620D01*
X50422Y400057D01*
X50774Y399570D01*
X51227Y399158D01*
X51781Y398820D01*
X52435Y398558D01*
X53189Y398370D01*
X54044Y398258D01*
X55000Y398220D01*
Y396780D01*
X54044Y396742D01*
X53189Y396630D01*
X52435Y396442D01*
X51781Y396180D01*
X51227Y395842D01*
X50774Y395430D01*
X50422Y394943D01*
X50171Y394380D01*
X50020Y393743D01*
X49970Y393031D01*
Y401969D01*
X50020Y401257D01*
D02*
G37*
G36*
X86487Y294370D02*
X86414Y294904D01*
X86198Y295382D01*
X85838Y295803D01*
X85334Y296168D01*
X84685Y296477D01*
X83893Y296730D01*
X82956Y296927D01*
X81876Y297067D01*
X80651Y297152D01*
X79282Y297180D01*
Y298620D01*
X80651Y298649D01*
X82956Y298873D01*
X83893Y299070D01*
X84685Y299323D01*
X85334Y299632D01*
X85838Y299997D01*
X86198Y300418D01*
X86414Y300896D01*
X86487Y301430D01*
Y294370D01*
D02*
G37*
G36*
X97102Y275496D02*
X97318Y275018D01*
X97678Y274597D01*
X98182Y274232D01*
X98831Y273923D01*
X99623Y273670D01*
X100560Y273473D01*
X101640Y273333D01*
X102865Y273249D01*
X104234Y273220D01*
Y271779D01*
X102865Y271751D01*
X100560Y271527D01*
X99623Y271330D01*
X98831Y271077D01*
X98182Y270768D01*
X97678Y270403D01*
X97318Y269982D01*
X97102Y269504D01*
X97029Y268971D01*
Y276029D01*
X97102Y275496D01*
D02*
G37*
G36*
X163586Y250096D02*
X163802Y249618D01*
X164162Y249197D01*
X164666Y248832D01*
X165315Y248523D01*
X166107Y248270D01*
X167044Y248073D01*
X168124Y247933D01*
X169349Y247848D01*
X170718Y247820D01*
Y246380D01*
X169349Y246352D01*
X167044Y246127D01*
X166107Y245930D01*
X165315Y245677D01*
X164666Y245368D01*
X164162Y245003D01*
X163802Y244582D01*
X163586Y244104D01*
X163514Y243570D01*
Y250630D01*
X163586Y250096D01*
D02*
G37*
G36*
X86487Y243570D02*
X86414Y244104D01*
X86198Y244582D01*
X85838Y245003D01*
X85334Y245368D01*
X84685Y245677D01*
X83893Y245930D01*
X82956Y246127D01*
X81876Y246267D01*
X80651Y246352D01*
X79282Y246380D01*
Y247820D01*
X80651Y247848D01*
X82956Y248073D01*
X83893Y248270D01*
X84685Y248523D01*
X85334Y248832D01*
X85838Y249197D01*
X86198Y249618D01*
X86414Y250096D01*
X86487Y250630D01*
Y243570D01*
D02*
G37*
G36*
X200030Y143031D02*
X199958Y143743D01*
X199742Y144380D01*
X199382Y144943D01*
X198878Y145430D01*
X198229Y145842D01*
X197437Y146180D01*
X196500Y146442D01*
X195420Y146630D01*
X194195Y146742D01*
X192826Y146780D01*
Y148221D01*
X194195Y148258D01*
X195420Y148370D01*
X196500Y148558D01*
X197437Y148820D01*
X198229Y149158D01*
X198878Y149570D01*
X199382Y150057D01*
X199742Y150620D01*
X199958Y151257D01*
X200030Y151969D01*
Y143031D01*
D02*
G37*
G36*
X50020Y151257D02*
X50171Y150620D01*
X50422Y150057D01*
X50774Y149570D01*
X51227Y149158D01*
X51781Y148820D01*
X52435Y148558D01*
X53189Y148370D01*
X54044Y148258D01*
X55000Y148221D01*
Y146780D01*
X54044Y146742D01*
X53189Y146630D01*
X52435Y146442D01*
X51781Y146180D01*
X51227Y145842D01*
X50774Y145430D01*
X50422Y144943D01*
X50171Y144380D01*
X50020Y143743D01*
X49970Y143031D01*
Y151969D01*
X50020Y151257D01*
D02*
G37*
D12*
X25000Y355000D02*
D03*
Y440000D02*
D03*
Y105000D02*
D03*
Y190000D02*
D03*
X225000D02*
D03*
Y105000D02*
D03*
Y440000D02*
D03*
Y355000D02*
D03*
D13*
X25000Y397500D02*
D03*
Y147500D02*
D03*
X225000D02*
D03*
Y397500D02*
D03*
D14*
X158242Y247100D02*
D03*
Y272500D02*
D03*
Y297900D02*
D03*
X91758D02*
D03*
Y272500D02*
D03*
Y247100D02*
D03*
D19*
X195000Y397500D02*
G03*
X185000Y387500I0J-10000D01*
G01*
X175000Y247100D02*
G03*
X185000Y257100I0J10000D01*
G01*
X65000Y387500D02*
G03*
X55000Y397500I-10000J0D01*
G01*
Y147500D02*
G03*
X65000Y157500I0J10000D01*
G01*
X125000Y172900D02*
G03*
X150400Y147500I25400J0D01*
G01*
X125000Y252695D02*
G03*
X104996Y272500I-20004J-200D01*
G01*
X65000Y307900D02*
G03*
X75000Y297900I10000J0D01*
G01*
Y247100D02*
G03*
X65000Y237100I0J-10000D01*
G01*
X195000Y397500D02*
X225000D01*
X185000Y257100D02*
Y387500D01*
X158242Y247100D02*
X175000D01*
X65000Y307900D02*
Y387500D01*
X25000Y397500D02*
X55000D01*
X25000Y147500D02*
X55000D01*
X125000Y172900D02*
Y252695D01*
X150400Y147500D02*
X225000D01*
X89258Y272500D02*
X104996D01*
X75000Y297900D02*
X91758D01*
X65000Y157500D02*
Y237100D01*
X75000Y247100D02*
X91758D01*
D20*
X59251Y389832D02*
D03*
X59887Y383866D02*
D03*
Y377866D02*
D03*
Y371866D02*
D03*
Y365866D02*
D03*
Y359866D02*
D03*
Y353866D02*
D03*
Y347866D02*
D03*
Y341866D02*
D03*
Y335866D02*
D03*
Y329866D02*
D03*
Y323866D02*
D03*
Y317866D02*
D03*
Y311866D02*
D03*
X60084Y305869D02*
D03*
X62031Y300194D02*
D03*
X66082Y295768D02*
D03*
X71507Y293203D02*
D03*
X77492Y292787D02*
D03*
X78994Y303013D02*
D03*
X73014Y303506D02*
D03*
X70113Y308758D02*
D03*
Y314758D02*
D03*
Y320758D02*
D03*
Y326758D02*
D03*
Y332758D02*
D03*
Y338758D02*
D03*
Y344758D02*
D03*
Y350758D02*
D03*
Y356758D02*
D03*
Y362758D02*
D03*
Y368758D02*
D03*
Y374758D02*
D03*
Y380758D02*
D03*
Y386758D02*
D03*
X69148Y392680D02*
D03*
X66047Y397816D02*
D03*
X61130Y401255D02*
D03*
X55280Y402590D02*
D03*
X187798Y400776D02*
D03*
X183228Y396887D02*
D03*
X180473Y391557D02*
D03*
X179887Y385586D02*
D03*
Y379586D02*
D03*
Y373586D02*
D03*
Y367586D02*
D03*
Y361586D02*
D03*
Y355586D02*
D03*
Y349586D02*
D03*
Y343586D02*
D03*
Y337586D02*
D03*
Y331586D02*
D03*
Y325586D02*
D03*
Y319586D02*
D03*
Y313586D02*
D03*
Y307586D02*
D03*
Y301586D02*
D03*
Y295586D02*
D03*
Y289586D02*
D03*
Y283586D02*
D03*
Y277586D02*
D03*
Y271586D02*
D03*
Y265586D02*
D03*
Y259586D02*
D03*
X178503Y253748D02*
D03*
X172702Y252213D02*
D03*
X170839Y241987D02*
D03*
X176836Y242158D02*
D03*
X182532Y244045D02*
D03*
X187016Y248031D02*
D03*
X189636Y253429D02*
D03*
X190113Y259410D02*
D03*
Y265410D02*
D03*
Y271410D02*
D03*
Y277410D02*
D03*
Y283410D02*
D03*
Y289410D02*
D03*
Y295410D02*
D03*
Y301410D02*
D03*
Y307410D02*
D03*
Y313410D02*
D03*
Y319410D02*
D03*
Y325410D02*
D03*
Y331410D02*
D03*
Y337410D02*
D03*
Y343410D02*
D03*
Y349410D02*
D03*
Y355410D02*
D03*
Y361410D02*
D03*
Y367410D02*
D03*
Y373410D02*
D03*
Y379410D02*
D03*
Y385410D02*
D03*
X191845Y391154D02*
D03*
X195167Y402613D02*
D03*
X102091Y267387D02*
D03*
X108082Y267050D02*
D03*
X113573Y264633D02*
D03*
X117663Y260243D02*
D03*
X119685Y254594D02*
D03*
X119887Y248598D02*
D03*
Y242598D02*
D03*
Y236598D02*
D03*
Y230598D02*
D03*
Y224598D02*
D03*
Y218598D02*
D03*
Y212598D02*
D03*
Y206598D02*
D03*
Y200598D02*
D03*
Y194598D02*
D03*
Y188598D02*
D03*
Y182598D02*
D03*
Y176598D02*
D03*
X120026Y170599D02*
D03*
X121066Y164690D02*
D03*
X123245Y159100D02*
D03*
X126478Y154045D02*
D03*
X130638Y149722D02*
D03*
X135565Y146298D02*
D03*
X141068Y143907D02*
D03*
X146933Y142640D02*
D03*
X152928Y142387D02*
D03*
X158928D02*
D03*
X164928D02*
D03*
X170928D02*
D03*
X176928D02*
D03*
X182928D02*
D03*
X188928D02*
D03*
X194928D02*
D03*
X191992Y152613D02*
D03*
X185992D02*
D03*
X179992D02*
D03*
X173992D02*
D03*
X167992D02*
D03*
X161992D02*
D03*
X155992D02*
D03*
X149992Y152623D02*
D03*
X144087Y153686D02*
D03*
X138706Y156341D02*
D03*
X134402Y160521D02*
D03*
X131443Y165741D02*
D03*
X130210Y171612D02*
D03*
X130113Y177612D02*
D03*
Y183612D02*
D03*
Y189612D02*
D03*
Y195612D02*
D03*
Y201612D02*
D03*
Y207612D02*
D03*
Y213612D02*
D03*
Y219612D02*
D03*
Y225612D02*
D03*
Y231612D02*
D03*
Y237612D02*
D03*
Y243612D02*
D03*
Y249612D02*
D03*
X129869Y255607D02*
D03*
X128469Y261441D02*
D03*
X125691Y266759D02*
D03*
X121679Y271221D02*
D03*
X116742Y274630D02*
D03*
X111153Y276813D02*
D03*
X105207Y277612D02*
D03*
X67472Y250158D02*
D03*
X62987Y246173D02*
D03*
X60365Y240776D02*
D03*
X59887Y234795D02*
D03*
Y228795D02*
D03*
Y222795D02*
D03*
Y216795D02*
D03*
Y210795D02*
D03*
Y204795D02*
D03*
Y198795D02*
D03*
Y192795D02*
D03*
Y186795D02*
D03*
Y180795D02*
D03*
Y174795D02*
D03*
Y168796D02*
D03*
Y162796D02*
D03*
X59768Y156797D02*
D03*
X55393Y152691D02*
D03*
X57683Y142670D02*
D03*
X63266Y144868D02*
D03*
X67525Y149094D02*
D03*
X69808Y154643D02*
D03*
X70113Y160636D02*
D03*
Y166635D02*
D03*
Y172635D02*
D03*
Y178636D02*
D03*
Y184635D02*
D03*
Y190635D02*
D03*
Y196635D02*
D03*
Y202635D02*
D03*
Y208635D02*
D03*
Y214635D02*
D03*
Y220635D02*
D03*
Y226635D02*
D03*
Y232635D02*
D03*
X70416Y238628D02*
D03*
X75388Y241987D02*
D03*
X81388D02*
D03*
X81167Y252213D02*
D03*
X75167D02*
D03*
X17250Y533249D02*
D03*
X29250D02*
D03*
X53250D02*
D03*
X41250D02*
D03*
X77250D02*
D03*
X65250D02*
D03*
X101250D02*
D03*
X89250D02*
D03*
X125250D02*
D03*
X113250D02*
D03*
X149250D02*
D03*
X137250D02*
D03*
X173250D02*
D03*
X161250D02*
D03*
X197250D02*
D03*
X185250D02*
D03*
X221250D02*
D03*
X209250D02*
D03*
X233249D02*
D03*
Y17250D02*
D03*
Y29250D02*
D03*
Y53250D02*
D03*
Y41250D02*
D03*
Y89250D02*
D03*
Y101250D02*
D03*
Y77250D02*
D03*
Y65250D02*
D03*
Y161250D02*
D03*
Y173250D02*
D03*
Y197250D02*
D03*
Y185250D02*
D03*
Y137250D02*
D03*
Y125250D02*
D03*
Y113250D02*
D03*
Y305249D02*
D03*
Y317249D02*
D03*
Y341249D02*
D03*
Y329249D02*
D03*
Y377249D02*
D03*
Y365249D02*
D03*
Y353249D02*
D03*
Y257250D02*
D03*
Y269249D02*
D03*
Y293249D02*
D03*
Y281250D02*
D03*
Y233249D02*
D03*
Y245250D02*
D03*
Y221250D02*
D03*
Y209250D02*
D03*
Y461249D02*
D03*
Y473249D02*
D03*
Y497249D02*
D03*
Y485249D02*
D03*
Y437249D02*
D03*
Y449249D02*
D03*
Y425249D02*
D03*
Y413249D02*
D03*
Y509249D02*
D03*
Y521249D02*
D03*
X209250Y17250D02*
D03*
Y29250D02*
D03*
Y53250D02*
D03*
Y41250D02*
D03*
Y89250D02*
D03*
Y101250D02*
D03*
Y77250D02*
D03*
Y65250D02*
D03*
Y161250D02*
D03*
Y173250D02*
D03*
Y197250D02*
D03*
Y185250D02*
D03*
Y137250D02*
D03*
Y125250D02*
D03*
Y113250D02*
D03*
Y305249D02*
D03*
Y317249D02*
D03*
Y341249D02*
D03*
Y329249D02*
D03*
Y377249D02*
D03*
Y365249D02*
D03*
Y353249D02*
D03*
Y257250D02*
D03*
Y269249D02*
D03*
Y293249D02*
D03*
Y281250D02*
D03*
Y233249D02*
D03*
Y245250D02*
D03*
Y221250D02*
D03*
Y209250D02*
D03*
Y461249D02*
D03*
Y473249D02*
D03*
Y497249D02*
D03*
Y485249D02*
D03*
Y437249D02*
D03*
Y449249D02*
D03*
Y425249D02*
D03*
Y413249D02*
D03*
Y509249D02*
D03*
Y521249D02*
D03*
X221250D02*
D03*
Y509249D02*
D03*
Y413249D02*
D03*
Y425249D02*
D03*
Y449249D02*
D03*
Y437249D02*
D03*
Y485249D02*
D03*
Y497249D02*
D03*
Y473249D02*
D03*
Y461249D02*
D03*
Y209250D02*
D03*
Y221250D02*
D03*
Y245250D02*
D03*
Y233249D02*
D03*
Y281250D02*
D03*
Y293249D02*
D03*
Y269249D02*
D03*
Y257250D02*
D03*
Y353249D02*
D03*
Y365249D02*
D03*
Y377249D02*
D03*
Y329249D02*
D03*
Y341249D02*
D03*
Y317249D02*
D03*
Y305249D02*
D03*
Y113250D02*
D03*
Y125250D02*
D03*
Y137250D02*
D03*
Y185250D02*
D03*
Y197250D02*
D03*
Y173250D02*
D03*
Y161250D02*
D03*
Y65250D02*
D03*
Y77250D02*
D03*
Y101250D02*
D03*
Y89250D02*
D03*
Y41250D02*
D03*
Y53250D02*
D03*
Y29250D02*
D03*
Y17250D02*
D03*
X185250D02*
D03*
Y29250D02*
D03*
Y53250D02*
D03*
Y41250D02*
D03*
Y89250D02*
D03*
Y101250D02*
D03*
Y77250D02*
D03*
Y65250D02*
D03*
Y161250D02*
D03*
Y173250D02*
D03*
Y197250D02*
D03*
Y185250D02*
D03*
Y137250D02*
D03*
Y125250D02*
D03*
Y113250D02*
D03*
Y233249D02*
D03*
Y221250D02*
D03*
Y209250D02*
D03*
Y461249D02*
D03*
Y473249D02*
D03*
Y497249D02*
D03*
Y485249D02*
D03*
Y437249D02*
D03*
Y449249D02*
D03*
Y425249D02*
D03*
Y413249D02*
D03*
Y509249D02*
D03*
Y521249D02*
D03*
X197250D02*
D03*
Y509249D02*
D03*
Y413249D02*
D03*
Y425249D02*
D03*
Y449249D02*
D03*
Y437249D02*
D03*
Y485249D02*
D03*
Y497249D02*
D03*
Y473249D02*
D03*
Y461249D02*
D03*
Y209250D02*
D03*
Y221250D02*
D03*
Y245250D02*
D03*
Y233249D02*
D03*
Y281250D02*
D03*
Y293249D02*
D03*
Y269249D02*
D03*
Y257250D02*
D03*
Y353249D02*
D03*
Y365249D02*
D03*
Y377249D02*
D03*
Y329249D02*
D03*
Y341249D02*
D03*
Y317249D02*
D03*
Y305249D02*
D03*
Y113250D02*
D03*
Y125250D02*
D03*
Y137250D02*
D03*
Y185250D02*
D03*
Y197250D02*
D03*
Y173250D02*
D03*
Y161250D02*
D03*
Y65250D02*
D03*
Y77250D02*
D03*
Y101250D02*
D03*
Y89250D02*
D03*
Y41250D02*
D03*
Y53250D02*
D03*
Y29250D02*
D03*
Y17250D02*
D03*
X161250D02*
D03*
Y29250D02*
D03*
Y53250D02*
D03*
Y41250D02*
D03*
Y89250D02*
D03*
Y101250D02*
D03*
Y77250D02*
D03*
Y65250D02*
D03*
Y161250D02*
D03*
Y173250D02*
D03*
Y197250D02*
D03*
Y185250D02*
D03*
Y137250D02*
D03*
Y125250D02*
D03*
Y113250D02*
D03*
Y305249D02*
D03*
Y317249D02*
D03*
Y341249D02*
D03*
Y329249D02*
D03*
Y377249D02*
D03*
Y389249D02*
D03*
Y365249D02*
D03*
Y353249D02*
D03*
Y257250D02*
D03*
Y269249D02*
D03*
Y293249D02*
D03*
Y281250D02*
D03*
Y233249D02*
D03*
Y221250D02*
D03*
Y209250D02*
D03*
Y401249D02*
D03*
Y461249D02*
D03*
Y473249D02*
D03*
Y497249D02*
D03*
Y485249D02*
D03*
Y437249D02*
D03*
Y449249D02*
D03*
Y425249D02*
D03*
Y413249D02*
D03*
Y509249D02*
D03*
Y521249D02*
D03*
X173250D02*
D03*
Y509249D02*
D03*
Y413249D02*
D03*
Y425249D02*
D03*
Y449249D02*
D03*
Y437249D02*
D03*
Y485249D02*
D03*
Y497249D02*
D03*
Y473249D02*
D03*
Y461249D02*
D03*
Y401249D02*
D03*
Y209250D02*
D03*
Y221250D02*
D03*
Y233249D02*
D03*
Y281250D02*
D03*
Y293249D02*
D03*
Y269249D02*
D03*
Y353249D02*
D03*
Y365249D02*
D03*
Y389249D02*
D03*
Y377249D02*
D03*
Y329249D02*
D03*
Y341249D02*
D03*
Y317249D02*
D03*
Y305249D02*
D03*
Y113250D02*
D03*
Y125250D02*
D03*
Y137250D02*
D03*
Y185250D02*
D03*
Y197250D02*
D03*
Y173250D02*
D03*
Y161250D02*
D03*
Y65250D02*
D03*
Y77250D02*
D03*
Y101250D02*
D03*
Y89250D02*
D03*
Y41250D02*
D03*
Y53250D02*
D03*
Y29250D02*
D03*
Y17250D02*
D03*
X137250D02*
D03*
Y29250D02*
D03*
Y53250D02*
D03*
Y41250D02*
D03*
Y89250D02*
D03*
Y101250D02*
D03*
Y77250D02*
D03*
Y65250D02*
D03*
Y173250D02*
D03*
Y197250D02*
D03*
Y185250D02*
D03*
Y137250D02*
D03*
Y125250D02*
D03*
Y113250D02*
D03*
Y305249D02*
D03*
Y317249D02*
D03*
Y341249D02*
D03*
Y329249D02*
D03*
Y377249D02*
D03*
Y389249D02*
D03*
Y365249D02*
D03*
Y353249D02*
D03*
Y257250D02*
D03*
Y269249D02*
D03*
Y293249D02*
D03*
Y281250D02*
D03*
Y233249D02*
D03*
Y245250D02*
D03*
Y221250D02*
D03*
Y209250D02*
D03*
Y401249D02*
D03*
Y461249D02*
D03*
Y473249D02*
D03*
Y497249D02*
D03*
Y485249D02*
D03*
Y437249D02*
D03*
Y449249D02*
D03*
Y425249D02*
D03*
Y413249D02*
D03*
Y509249D02*
D03*
Y521249D02*
D03*
X149250D02*
D03*
Y509249D02*
D03*
Y413249D02*
D03*
Y425249D02*
D03*
Y449249D02*
D03*
Y437249D02*
D03*
Y485249D02*
D03*
Y497249D02*
D03*
Y473249D02*
D03*
Y461249D02*
D03*
Y401249D02*
D03*
Y209250D02*
D03*
Y221250D02*
D03*
Y233249D02*
D03*
Y281250D02*
D03*
Y293249D02*
D03*
Y269249D02*
D03*
Y257250D02*
D03*
Y353249D02*
D03*
Y365249D02*
D03*
Y389249D02*
D03*
Y377249D02*
D03*
Y329249D02*
D03*
Y341249D02*
D03*
Y317249D02*
D03*
Y305249D02*
D03*
Y113250D02*
D03*
Y125250D02*
D03*
Y137250D02*
D03*
Y185250D02*
D03*
Y197250D02*
D03*
Y173250D02*
D03*
Y161250D02*
D03*
Y65250D02*
D03*
Y77250D02*
D03*
Y101250D02*
D03*
Y89250D02*
D03*
Y41250D02*
D03*
Y53250D02*
D03*
Y29250D02*
D03*
Y17250D02*
D03*
X113250D02*
D03*
Y29250D02*
D03*
Y53250D02*
D03*
Y41250D02*
D03*
Y89250D02*
D03*
Y101250D02*
D03*
Y77250D02*
D03*
Y65250D02*
D03*
Y161250D02*
D03*
Y173250D02*
D03*
Y197250D02*
D03*
Y185250D02*
D03*
Y137250D02*
D03*
Y149250D02*
D03*
Y125250D02*
D03*
Y113250D02*
D03*
Y305249D02*
D03*
Y317249D02*
D03*
Y341249D02*
D03*
Y329249D02*
D03*
Y377249D02*
D03*
Y389249D02*
D03*
Y365249D02*
D03*
Y353249D02*
D03*
Y293249D02*
D03*
Y233249D02*
D03*
Y245250D02*
D03*
Y221250D02*
D03*
Y209250D02*
D03*
Y401249D02*
D03*
Y461249D02*
D03*
Y473249D02*
D03*
Y497249D02*
D03*
Y485249D02*
D03*
Y437249D02*
D03*
Y449249D02*
D03*
Y425249D02*
D03*
Y413249D02*
D03*
Y509249D02*
D03*
Y521249D02*
D03*
X125250D02*
D03*
Y509249D02*
D03*
Y413249D02*
D03*
Y425249D02*
D03*
Y449249D02*
D03*
Y437249D02*
D03*
Y485249D02*
D03*
Y497249D02*
D03*
Y473249D02*
D03*
Y461249D02*
D03*
Y401249D02*
D03*
Y281250D02*
D03*
Y293249D02*
D03*
Y353249D02*
D03*
Y365249D02*
D03*
Y389249D02*
D03*
Y377249D02*
D03*
Y329249D02*
D03*
Y341249D02*
D03*
Y317249D02*
D03*
Y305249D02*
D03*
Y113250D02*
D03*
Y125250D02*
D03*
Y137250D02*
D03*
Y65250D02*
D03*
Y77250D02*
D03*
Y101250D02*
D03*
Y89250D02*
D03*
Y41250D02*
D03*
Y53250D02*
D03*
Y29250D02*
D03*
Y17250D02*
D03*
X89250D02*
D03*
Y29250D02*
D03*
Y53250D02*
D03*
Y41250D02*
D03*
Y89250D02*
D03*
Y101250D02*
D03*
Y77250D02*
D03*
Y65250D02*
D03*
Y161250D02*
D03*
Y173250D02*
D03*
Y197250D02*
D03*
Y185250D02*
D03*
Y137250D02*
D03*
Y149250D02*
D03*
Y125250D02*
D03*
Y113250D02*
D03*
Y317249D02*
D03*
Y341249D02*
D03*
Y329249D02*
D03*
Y377249D02*
D03*
Y389249D02*
D03*
Y365249D02*
D03*
Y353249D02*
D03*
Y257250D02*
D03*
Y281250D02*
D03*
Y233249D02*
D03*
Y221250D02*
D03*
Y209250D02*
D03*
Y401249D02*
D03*
Y461249D02*
D03*
Y473249D02*
D03*
Y497249D02*
D03*
Y485249D02*
D03*
Y437249D02*
D03*
Y449249D02*
D03*
Y425249D02*
D03*
Y413249D02*
D03*
Y509249D02*
D03*
Y521249D02*
D03*
X101250D02*
D03*
Y509249D02*
D03*
Y413249D02*
D03*
Y425249D02*
D03*
Y449249D02*
D03*
Y437249D02*
D03*
Y485249D02*
D03*
Y497249D02*
D03*
Y473249D02*
D03*
Y461249D02*
D03*
Y401249D02*
D03*
Y209250D02*
D03*
Y221250D02*
D03*
Y233249D02*
D03*
Y293249D02*
D03*
Y257250D02*
D03*
Y353249D02*
D03*
Y365249D02*
D03*
Y389249D02*
D03*
Y377249D02*
D03*
Y329249D02*
D03*
Y341249D02*
D03*
Y317249D02*
D03*
Y305249D02*
D03*
Y113250D02*
D03*
Y125250D02*
D03*
Y149250D02*
D03*
Y137250D02*
D03*
Y185250D02*
D03*
Y197250D02*
D03*
Y173250D02*
D03*
Y161250D02*
D03*
Y65250D02*
D03*
Y77250D02*
D03*
Y101250D02*
D03*
Y89250D02*
D03*
Y41250D02*
D03*
Y53250D02*
D03*
Y29250D02*
D03*
Y17250D02*
D03*
X65250D02*
D03*
Y29250D02*
D03*
Y53250D02*
D03*
Y41250D02*
D03*
Y89250D02*
D03*
Y101250D02*
D03*
Y77250D02*
D03*
Y65250D02*
D03*
Y137250D02*
D03*
Y125250D02*
D03*
Y113250D02*
D03*
Y257250D02*
D03*
Y269249D02*
D03*
Y281250D02*
D03*
Y461249D02*
D03*
Y473249D02*
D03*
Y497249D02*
D03*
Y485249D02*
D03*
Y437249D02*
D03*
Y449249D02*
D03*
Y425249D02*
D03*
Y413249D02*
D03*
Y509249D02*
D03*
Y521249D02*
D03*
X77250D02*
D03*
Y509249D02*
D03*
Y413249D02*
D03*
Y425249D02*
D03*
Y449249D02*
D03*
Y437249D02*
D03*
Y485249D02*
D03*
Y497249D02*
D03*
Y473249D02*
D03*
Y461249D02*
D03*
Y401249D02*
D03*
Y209250D02*
D03*
Y221250D02*
D03*
Y233249D02*
D03*
Y281250D02*
D03*
Y269249D02*
D03*
Y353249D02*
D03*
Y365249D02*
D03*
Y389249D02*
D03*
Y377249D02*
D03*
Y329249D02*
D03*
Y341249D02*
D03*
Y317249D02*
D03*
Y113250D02*
D03*
Y125250D02*
D03*
Y149250D02*
D03*
Y137250D02*
D03*
Y185250D02*
D03*
Y197250D02*
D03*
Y173250D02*
D03*
Y161250D02*
D03*
Y65250D02*
D03*
Y77250D02*
D03*
Y101250D02*
D03*
Y89250D02*
D03*
Y41250D02*
D03*
Y53250D02*
D03*
Y29250D02*
D03*
Y17250D02*
D03*
X41250D02*
D03*
Y29250D02*
D03*
Y53250D02*
D03*
Y41250D02*
D03*
Y89250D02*
D03*
Y101250D02*
D03*
Y77250D02*
D03*
Y65250D02*
D03*
Y161250D02*
D03*
Y173250D02*
D03*
Y197250D02*
D03*
Y185250D02*
D03*
Y137250D02*
D03*
Y125250D02*
D03*
Y113250D02*
D03*
Y305249D02*
D03*
Y317249D02*
D03*
Y341249D02*
D03*
Y329249D02*
D03*
Y377249D02*
D03*
Y365249D02*
D03*
Y353249D02*
D03*
Y257250D02*
D03*
Y269249D02*
D03*
Y293249D02*
D03*
Y281250D02*
D03*
Y233249D02*
D03*
Y245250D02*
D03*
Y221250D02*
D03*
Y209250D02*
D03*
Y461249D02*
D03*
Y473249D02*
D03*
Y497249D02*
D03*
Y485249D02*
D03*
Y437249D02*
D03*
Y449249D02*
D03*
Y425249D02*
D03*
Y413249D02*
D03*
Y509249D02*
D03*
Y521249D02*
D03*
X53250D02*
D03*
Y509249D02*
D03*
Y413249D02*
D03*
Y425249D02*
D03*
Y449249D02*
D03*
Y437249D02*
D03*
Y485249D02*
D03*
Y497249D02*
D03*
Y473249D02*
D03*
Y461249D02*
D03*
Y209250D02*
D03*
Y221250D02*
D03*
Y245250D02*
D03*
Y233249D02*
D03*
Y281250D02*
D03*
Y293249D02*
D03*
Y269249D02*
D03*
Y257250D02*
D03*
Y353249D02*
D03*
Y365249D02*
D03*
Y377249D02*
D03*
Y329249D02*
D03*
Y341249D02*
D03*
Y317249D02*
D03*
Y305249D02*
D03*
Y113250D02*
D03*
Y125250D02*
D03*
Y137250D02*
D03*
Y185250D02*
D03*
Y197250D02*
D03*
Y173250D02*
D03*
Y161250D02*
D03*
Y65250D02*
D03*
Y77250D02*
D03*
Y101250D02*
D03*
Y89250D02*
D03*
Y41250D02*
D03*
Y53250D02*
D03*
Y29250D02*
D03*
Y17250D02*
D03*
X29250D02*
D03*
Y29250D02*
D03*
Y53250D02*
D03*
Y41250D02*
D03*
Y89250D02*
D03*
Y101250D02*
D03*
Y77250D02*
D03*
Y65250D02*
D03*
Y161250D02*
D03*
Y173250D02*
D03*
Y197250D02*
D03*
Y185250D02*
D03*
Y137250D02*
D03*
Y125250D02*
D03*
Y113250D02*
D03*
Y305249D02*
D03*
Y317249D02*
D03*
Y341249D02*
D03*
Y329249D02*
D03*
Y377249D02*
D03*
Y365249D02*
D03*
Y353249D02*
D03*
Y257250D02*
D03*
Y269249D02*
D03*
Y293249D02*
D03*
Y281250D02*
D03*
Y233249D02*
D03*
Y245250D02*
D03*
Y221250D02*
D03*
Y209250D02*
D03*
Y461249D02*
D03*
Y473249D02*
D03*
Y497249D02*
D03*
Y485249D02*
D03*
Y437249D02*
D03*
Y449249D02*
D03*
Y425249D02*
D03*
Y413249D02*
D03*
Y509249D02*
D03*
Y521249D02*
D03*
X17250D02*
D03*
Y509249D02*
D03*
Y413249D02*
D03*
Y425249D02*
D03*
Y449249D02*
D03*
Y437249D02*
D03*
Y485249D02*
D03*
Y497249D02*
D03*
Y473249D02*
D03*
Y461249D02*
D03*
X5250Y425249D02*
D03*
X17250Y209250D02*
D03*
Y221250D02*
D03*
Y245250D02*
D03*
Y233249D02*
D03*
Y281250D02*
D03*
Y293249D02*
D03*
Y269249D02*
D03*
Y257250D02*
D03*
Y353249D02*
D03*
Y365249D02*
D03*
Y377249D02*
D03*
Y329249D02*
D03*
Y341249D02*
D03*
Y317249D02*
D03*
Y305249D02*
D03*
Y113250D02*
D03*
Y125250D02*
D03*
Y137250D02*
D03*
Y185250D02*
D03*
Y197250D02*
D03*
Y173250D02*
D03*
Y161250D02*
D03*
Y65250D02*
D03*
Y77250D02*
D03*
Y101250D02*
D03*
Y89250D02*
D03*
Y41250D02*
D03*
Y53250D02*
D03*
Y29250D02*
D03*
Y17250D02*
D03*
X5250Y161250D02*
D03*
X244750Y455249D02*
D03*
Y449249D02*
D03*
Y443249D02*
D03*
Y467249D02*
D03*
Y473249D02*
D03*
Y461249D02*
D03*
Y509249D02*
D03*
Y503249D02*
D03*
Y497249D02*
D03*
Y485249D02*
D03*
Y491249D02*
D03*
Y479249D02*
D03*
X240000Y535000D02*
D03*
X244750Y521249D02*
D03*
Y527249D02*
D03*
Y515249D02*
D03*
Y299249D02*
D03*
Y311249D02*
D03*
Y305249D02*
D03*
Y323249D02*
D03*
Y329249D02*
D03*
Y317249D02*
D03*
Y365249D02*
D03*
Y359249D02*
D03*
Y353249D02*
D03*
Y341249D02*
D03*
Y347249D02*
D03*
Y335249D02*
D03*
Y419249D02*
D03*
Y413249D02*
D03*
Y407249D02*
D03*
Y431249D02*
D03*
Y437249D02*
D03*
Y425249D02*
D03*
Y371249D02*
D03*
Y377249D02*
D03*
Y383249D02*
D03*
Y167250D02*
D03*
Y161250D02*
D03*
Y173250D02*
D03*
Y179250D02*
D03*
Y185250D02*
D03*
Y221250D02*
D03*
Y215250D02*
D03*
Y209250D02*
D03*
Y197250D02*
D03*
Y203250D02*
D03*
Y191250D02*
D03*
Y263249D02*
D03*
Y275250D02*
D03*
Y269249D02*
D03*
Y281250D02*
D03*
Y287249D02*
D03*
Y293249D02*
D03*
Y257250D02*
D03*
Y251250D02*
D03*
Y245250D02*
D03*
Y233249D02*
D03*
Y239249D02*
D03*
Y227250D02*
D03*
Y23250D02*
D03*
Y17250D02*
D03*
Y35250D02*
D03*
Y41250D02*
D03*
Y29250D02*
D03*
Y77250D02*
D03*
Y71250D02*
D03*
Y65250D02*
D03*
Y53250D02*
D03*
Y59250D02*
D03*
Y47250D02*
D03*
Y119250D02*
D03*
Y131250D02*
D03*
Y125250D02*
D03*
Y137250D02*
D03*
Y101250D02*
D03*
Y113250D02*
D03*
Y107250D02*
D03*
Y83250D02*
D03*
Y89250D02*
D03*
Y95250D02*
D03*
X240000Y10000D02*
D03*
X155250Y5250D02*
D03*
X167250D02*
D03*
X161250D02*
D03*
X179250D02*
D03*
X185250D02*
D03*
X173250D02*
D03*
X209250D02*
D03*
X221250D02*
D03*
X215250D02*
D03*
X197250D02*
D03*
X203250D02*
D03*
X191250D02*
D03*
X233249D02*
D03*
X227250D02*
D03*
X23250D02*
D03*
X17250D02*
D03*
X35250D02*
D03*
X41250D02*
D03*
X29250D02*
D03*
X77250D02*
D03*
X71250D02*
D03*
X65250D02*
D03*
X53250D02*
D03*
X59250D02*
D03*
X47250D02*
D03*
X131250D02*
D03*
X125250D02*
D03*
X119250D02*
D03*
X143250D02*
D03*
X149250D02*
D03*
X137250D02*
D03*
X113250D02*
D03*
X107250D02*
D03*
X101250D02*
D03*
X89250D02*
D03*
X95250D02*
D03*
X83250D02*
D03*
X167250Y539750D02*
D03*
X161250D02*
D03*
X155250D02*
D03*
X179250D02*
D03*
X185250D02*
D03*
X173250D02*
D03*
X209250D02*
D03*
X221250D02*
D03*
X215250D02*
D03*
X197250D02*
D03*
X203250D02*
D03*
X191250D02*
D03*
X233249D02*
D03*
X227250D02*
D03*
X23250D02*
D03*
X17250D02*
D03*
X10000Y535000D02*
D03*
X35250Y539750D02*
D03*
X41250D02*
D03*
X29250D02*
D03*
X77250D02*
D03*
X71250D02*
D03*
X65250D02*
D03*
X53250D02*
D03*
X59250D02*
D03*
X47250D02*
D03*
X131250D02*
D03*
X125250D02*
D03*
X119250D02*
D03*
X143250D02*
D03*
X149250D02*
D03*
X137250D02*
D03*
X113250D02*
D03*
X107250D02*
D03*
X101250D02*
D03*
X89250D02*
D03*
X95250D02*
D03*
X83250D02*
D03*
X5250Y455249D02*
D03*
Y449249D02*
D03*
Y443249D02*
D03*
Y467249D02*
D03*
Y473249D02*
D03*
Y461249D02*
D03*
Y497249D02*
D03*
Y509249D02*
D03*
Y503249D02*
D03*
Y485249D02*
D03*
Y491249D02*
D03*
Y479249D02*
D03*
Y521249D02*
D03*
Y527249D02*
D03*
Y515249D02*
D03*
Y311249D02*
D03*
Y305249D02*
D03*
Y299249D02*
D03*
Y323249D02*
D03*
Y329249D02*
D03*
Y317249D02*
D03*
Y365249D02*
D03*
Y359249D02*
D03*
Y353249D02*
D03*
Y341249D02*
D03*
Y347249D02*
D03*
Y335249D02*
D03*
Y419249D02*
D03*
Y413249D02*
D03*
Y407249D02*
D03*
Y431249D02*
D03*
Y437249D02*
D03*
Y377249D02*
D03*
Y383249D02*
D03*
Y371249D02*
D03*
Y167250D02*
D03*
Y179250D02*
D03*
Y185250D02*
D03*
Y173250D02*
D03*
Y221250D02*
D03*
Y215250D02*
D03*
Y209250D02*
D03*
Y197250D02*
D03*
Y203250D02*
D03*
Y191250D02*
D03*
Y275250D02*
D03*
Y269249D02*
D03*
Y263249D02*
D03*
Y287249D02*
D03*
Y293249D02*
D03*
Y281250D02*
D03*
Y245250D02*
D03*
Y257250D02*
D03*
Y251250D02*
D03*
Y233249D02*
D03*
Y239249D02*
D03*
Y227250D02*
D03*
Y83250D02*
D03*
Y95250D02*
D03*
Y89250D02*
D03*
Y107250D02*
D03*
Y113250D02*
D03*
Y101250D02*
D03*
Y137250D02*
D03*
Y119250D02*
D03*
Y125250D02*
D03*
Y131250D02*
D03*
Y59250D02*
D03*
Y53250D02*
D03*
Y47250D02*
D03*
Y65250D02*
D03*
Y71250D02*
D03*
Y77250D02*
D03*
Y41250D02*
D03*
Y35250D02*
D03*
Y29250D02*
D03*
Y17250D02*
D03*
Y23250D02*
D03*
X10000Y10000D02*
D03*
M02*
