G04*
G04 #@! TF.GenerationSoftware,Altium Limited,Altium Designer,25.6.2 (33)*
G04*
G04 Layer_Physical_Order=2*
G04 Layer_Color=16711935*
%FSLAX44Y44*%
%MOMM*%
G71*
G04*
G04 #@! TF.SameCoordinates,406FDB3A-8374-4AAD-B88D-9ED9193208D5*
G04*
G04*
G04 #@! TF.FilePolarity,Positive*
G04*
G01*
G75*
%ADD20C,0.4500*%
G36*
X230000Y542451D02*
X231719D01*
X235090Y541781D01*
X238266Y540465D01*
X241124Y538555D01*
X243555Y536124D01*
X245465Y533266D01*
X246780Y530090D01*
X247451Y526719D01*
X247451Y525000D01*
X247451Y20000D01*
Y18281D01*
X246780Y14910D01*
X245465Y11734D01*
X243555Y8875D01*
X241124Y6445D01*
X238266Y4535D01*
X235090Y3219D01*
X231719Y2549D01*
X230000Y2549D01*
X20000Y2549D01*
X18281D01*
X14910Y3219D01*
X11734Y4535D01*
X8875Y6445D01*
X6445Y8875D01*
X4535Y11734D01*
X3219Y14910D01*
X2549Y18281D01*
X2549Y20000D01*
X2549Y525000D01*
Y526719D01*
X3220Y530090D01*
X4535Y533266D01*
X6445Y536124D01*
X8875Y538555D01*
X11734Y540465D01*
X14910Y541781D01*
X18281Y542451D01*
X20000Y542451D01*
X230000Y542451D01*
D02*
G37*
D20*
X59251Y389832D02*
D03*
X59887Y383866D02*
D03*
Y377866D02*
D03*
Y371866D02*
D03*
Y365866D02*
D03*
Y359866D02*
D03*
Y353866D02*
D03*
Y347866D02*
D03*
Y341866D02*
D03*
Y335866D02*
D03*
Y329866D02*
D03*
Y323866D02*
D03*
Y317866D02*
D03*
Y311866D02*
D03*
X60084Y305869D02*
D03*
X62031Y300194D02*
D03*
X66082Y295768D02*
D03*
X71507Y293203D02*
D03*
X77492Y292787D02*
D03*
X78994Y303013D02*
D03*
X73014Y303506D02*
D03*
X70113Y308758D02*
D03*
Y314758D02*
D03*
Y320758D02*
D03*
Y326758D02*
D03*
Y332758D02*
D03*
Y338758D02*
D03*
Y344758D02*
D03*
Y350758D02*
D03*
Y356758D02*
D03*
Y362758D02*
D03*
Y368758D02*
D03*
Y374758D02*
D03*
Y380758D02*
D03*
Y386758D02*
D03*
X69148Y392680D02*
D03*
X66047Y397816D02*
D03*
X61130Y401255D02*
D03*
X55280Y402590D02*
D03*
X187798Y400776D02*
D03*
X183228Y396887D02*
D03*
X180473Y391557D02*
D03*
X179887Y385586D02*
D03*
Y379586D02*
D03*
Y373586D02*
D03*
Y367586D02*
D03*
Y361586D02*
D03*
Y355586D02*
D03*
Y349586D02*
D03*
Y343586D02*
D03*
Y337586D02*
D03*
Y331586D02*
D03*
Y325586D02*
D03*
Y319586D02*
D03*
Y313586D02*
D03*
Y307586D02*
D03*
Y301586D02*
D03*
Y295586D02*
D03*
Y289586D02*
D03*
Y283586D02*
D03*
Y277586D02*
D03*
Y271586D02*
D03*
Y265586D02*
D03*
Y259586D02*
D03*
X178503Y253748D02*
D03*
X172702Y252213D02*
D03*
X170839Y241987D02*
D03*
X176836Y242158D02*
D03*
X182532Y244045D02*
D03*
X187016Y248031D02*
D03*
X189636Y253429D02*
D03*
X190113Y259410D02*
D03*
Y265410D02*
D03*
Y271410D02*
D03*
Y277410D02*
D03*
Y283410D02*
D03*
Y289410D02*
D03*
Y295410D02*
D03*
Y301410D02*
D03*
Y307410D02*
D03*
Y313410D02*
D03*
Y319410D02*
D03*
Y325410D02*
D03*
Y331410D02*
D03*
Y337410D02*
D03*
Y343410D02*
D03*
Y349410D02*
D03*
Y355410D02*
D03*
Y361410D02*
D03*
Y367410D02*
D03*
Y373410D02*
D03*
Y379410D02*
D03*
Y385410D02*
D03*
X191845Y391154D02*
D03*
X195167Y402613D02*
D03*
X102091Y267387D02*
D03*
X108082Y267050D02*
D03*
X113573Y264633D02*
D03*
X117663Y260243D02*
D03*
X119685Y254594D02*
D03*
X119887Y248598D02*
D03*
Y242598D02*
D03*
Y236598D02*
D03*
Y230598D02*
D03*
Y224598D02*
D03*
Y218598D02*
D03*
Y212598D02*
D03*
Y206598D02*
D03*
Y200598D02*
D03*
Y194598D02*
D03*
Y188598D02*
D03*
Y182598D02*
D03*
Y176598D02*
D03*
X120026Y170599D02*
D03*
X121066Y164690D02*
D03*
X123245Y159100D02*
D03*
X126478Y154045D02*
D03*
X130638Y149722D02*
D03*
X135565Y146298D02*
D03*
X141068Y143907D02*
D03*
X146933Y142640D02*
D03*
X152928Y142387D02*
D03*
X158928D02*
D03*
X164928D02*
D03*
X170928D02*
D03*
X176928D02*
D03*
X182928D02*
D03*
X188928D02*
D03*
X194928D02*
D03*
X191992Y152613D02*
D03*
X185992D02*
D03*
X179992D02*
D03*
X173992D02*
D03*
X167992D02*
D03*
X161992D02*
D03*
X155992D02*
D03*
X149992Y152623D02*
D03*
X144087Y153686D02*
D03*
X138706Y156341D02*
D03*
X134402Y160521D02*
D03*
X131443Y165741D02*
D03*
X130210Y171612D02*
D03*
X130113Y177612D02*
D03*
Y183612D02*
D03*
Y189612D02*
D03*
Y195612D02*
D03*
Y201612D02*
D03*
Y207612D02*
D03*
Y213612D02*
D03*
Y219612D02*
D03*
Y225612D02*
D03*
Y231612D02*
D03*
Y237612D02*
D03*
Y243612D02*
D03*
Y249612D02*
D03*
X129869Y255607D02*
D03*
X128469Y261441D02*
D03*
X125691Y266759D02*
D03*
X121679Y271221D02*
D03*
X116742Y274630D02*
D03*
X111153Y276813D02*
D03*
X105207Y277612D02*
D03*
X67472Y250158D02*
D03*
X62987Y246173D02*
D03*
X60365Y240776D02*
D03*
X59887Y234795D02*
D03*
Y228795D02*
D03*
Y222795D02*
D03*
Y216795D02*
D03*
Y210795D02*
D03*
Y204795D02*
D03*
Y198795D02*
D03*
Y192795D02*
D03*
Y186795D02*
D03*
Y180795D02*
D03*
Y174795D02*
D03*
Y168796D02*
D03*
Y162796D02*
D03*
X59768Y156797D02*
D03*
X55393Y152691D02*
D03*
X57683Y142670D02*
D03*
X63266Y144868D02*
D03*
X67525Y149094D02*
D03*
X69808Y154643D02*
D03*
X70113Y160636D02*
D03*
Y166635D02*
D03*
Y172635D02*
D03*
Y178636D02*
D03*
Y184635D02*
D03*
Y190635D02*
D03*
Y196635D02*
D03*
Y202635D02*
D03*
Y208635D02*
D03*
Y214635D02*
D03*
Y220635D02*
D03*
Y226635D02*
D03*
Y232635D02*
D03*
X70416Y238628D02*
D03*
X75388Y241987D02*
D03*
X81388D02*
D03*
X81167Y252213D02*
D03*
X75167D02*
D03*
X17250Y533249D02*
D03*
X29250D02*
D03*
X53250D02*
D03*
X41250D02*
D03*
X77250D02*
D03*
X65250D02*
D03*
X101250D02*
D03*
X89250D02*
D03*
X125250D02*
D03*
X113250D02*
D03*
X149250D02*
D03*
X137250D02*
D03*
X173250D02*
D03*
X161250D02*
D03*
X197250D02*
D03*
X185250D02*
D03*
X221250D02*
D03*
X209250D02*
D03*
X233249D02*
D03*
Y17250D02*
D03*
Y29250D02*
D03*
Y53250D02*
D03*
Y41250D02*
D03*
Y89250D02*
D03*
Y101250D02*
D03*
Y77250D02*
D03*
Y65250D02*
D03*
Y161250D02*
D03*
Y173250D02*
D03*
Y197250D02*
D03*
Y185250D02*
D03*
Y137250D02*
D03*
Y125250D02*
D03*
Y113250D02*
D03*
Y305249D02*
D03*
Y317249D02*
D03*
Y341249D02*
D03*
Y329249D02*
D03*
Y377249D02*
D03*
Y365249D02*
D03*
Y353249D02*
D03*
Y257250D02*
D03*
Y269249D02*
D03*
Y293249D02*
D03*
Y281250D02*
D03*
Y233249D02*
D03*
Y245250D02*
D03*
Y221250D02*
D03*
Y209250D02*
D03*
Y461249D02*
D03*
Y473249D02*
D03*
Y497249D02*
D03*
Y485249D02*
D03*
Y437249D02*
D03*
Y449249D02*
D03*
Y425249D02*
D03*
Y413249D02*
D03*
Y509249D02*
D03*
Y521249D02*
D03*
X209250Y17250D02*
D03*
Y29250D02*
D03*
Y53250D02*
D03*
Y41250D02*
D03*
Y89250D02*
D03*
Y101250D02*
D03*
Y77250D02*
D03*
Y65250D02*
D03*
Y161250D02*
D03*
Y173250D02*
D03*
Y197250D02*
D03*
Y185250D02*
D03*
Y137250D02*
D03*
Y125250D02*
D03*
Y113250D02*
D03*
Y305249D02*
D03*
Y317249D02*
D03*
Y341249D02*
D03*
Y329249D02*
D03*
Y377249D02*
D03*
Y365249D02*
D03*
Y353249D02*
D03*
Y257250D02*
D03*
Y269249D02*
D03*
Y293249D02*
D03*
Y281250D02*
D03*
Y233249D02*
D03*
Y245250D02*
D03*
Y221250D02*
D03*
Y209250D02*
D03*
Y461249D02*
D03*
Y473249D02*
D03*
Y497249D02*
D03*
Y485249D02*
D03*
Y437249D02*
D03*
Y449249D02*
D03*
Y425249D02*
D03*
Y413249D02*
D03*
Y509249D02*
D03*
Y521249D02*
D03*
X221250D02*
D03*
Y509249D02*
D03*
Y413249D02*
D03*
Y425249D02*
D03*
Y449249D02*
D03*
Y437249D02*
D03*
Y485249D02*
D03*
Y497249D02*
D03*
Y473249D02*
D03*
Y461249D02*
D03*
Y209250D02*
D03*
Y221250D02*
D03*
Y245250D02*
D03*
Y233249D02*
D03*
Y281250D02*
D03*
Y293249D02*
D03*
Y269249D02*
D03*
Y257250D02*
D03*
Y353249D02*
D03*
Y365249D02*
D03*
Y377249D02*
D03*
Y329249D02*
D03*
Y341249D02*
D03*
Y317249D02*
D03*
Y305249D02*
D03*
Y113250D02*
D03*
Y125250D02*
D03*
Y137250D02*
D03*
Y185250D02*
D03*
Y197250D02*
D03*
Y173250D02*
D03*
Y161250D02*
D03*
Y65250D02*
D03*
Y77250D02*
D03*
Y101250D02*
D03*
Y89250D02*
D03*
Y41250D02*
D03*
Y53250D02*
D03*
Y29250D02*
D03*
Y17250D02*
D03*
X185250D02*
D03*
Y29250D02*
D03*
Y53250D02*
D03*
Y41250D02*
D03*
Y89250D02*
D03*
Y101250D02*
D03*
Y77250D02*
D03*
Y65250D02*
D03*
Y161250D02*
D03*
Y173250D02*
D03*
Y197250D02*
D03*
Y185250D02*
D03*
Y137250D02*
D03*
Y125250D02*
D03*
Y113250D02*
D03*
Y233249D02*
D03*
Y221250D02*
D03*
Y209250D02*
D03*
Y461249D02*
D03*
Y473249D02*
D03*
Y497249D02*
D03*
Y485249D02*
D03*
Y437249D02*
D03*
Y449249D02*
D03*
Y425249D02*
D03*
Y413249D02*
D03*
Y509249D02*
D03*
Y521249D02*
D03*
X197250D02*
D03*
Y509249D02*
D03*
Y413249D02*
D03*
Y425249D02*
D03*
Y449249D02*
D03*
Y437249D02*
D03*
Y485249D02*
D03*
Y497249D02*
D03*
Y473249D02*
D03*
Y461249D02*
D03*
Y209250D02*
D03*
Y221250D02*
D03*
Y245250D02*
D03*
Y233249D02*
D03*
Y281250D02*
D03*
Y293249D02*
D03*
Y269249D02*
D03*
Y257250D02*
D03*
Y353249D02*
D03*
Y365249D02*
D03*
Y377249D02*
D03*
Y329249D02*
D03*
Y341249D02*
D03*
Y317249D02*
D03*
Y305249D02*
D03*
Y113250D02*
D03*
Y125250D02*
D03*
Y137250D02*
D03*
Y185250D02*
D03*
Y197250D02*
D03*
Y173250D02*
D03*
Y161250D02*
D03*
Y65250D02*
D03*
Y77250D02*
D03*
Y101250D02*
D03*
Y89250D02*
D03*
Y41250D02*
D03*
Y53250D02*
D03*
Y29250D02*
D03*
Y17250D02*
D03*
X161250D02*
D03*
Y29250D02*
D03*
Y53250D02*
D03*
Y41250D02*
D03*
Y89250D02*
D03*
Y101250D02*
D03*
Y77250D02*
D03*
Y65250D02*
D03*
Y161250D02*
D03*
Y173250D02*
D03*
Y197250D02*
D03*
Y185250D02*
D03*
Y137250D02*
D03*
Y125250D02*
D03*
Y113250D02*
D03*
Y305249D02*
D03*
Y317249D02*
D03*
Y341249D02*
D03*
Y329249D02*
D03*
Y377249D02*
D03*
Y389249D02*
D03*
Y365249D02*
D03*
Y353249D02*
D03*
Y257250D02*
D03*
Y269249D02*
D03*
Y293249D02*
D03*
Y281250D02*
D03*
Y233249D02*
D03*
Y221250D02*
D03*
Y209250D02*
D03*
Y401249D02*
D03*
Y461249D02*
D03*
Y473249D02*
D03*
Y497249D02*
D03*
Y485249D02*
D03*
Y437249D02*
D03*
Y449249D02*
D03*
Y425249D02*
D03*
Y413249D02*
D03*
Y509249D02*
D03*
Y521249D02*
D03*
X173250D02*
D03*
Y509249D02*
D03*
Y413249D02*
D03*
Y425249D02*
D03*
Y449249D02*
D03*
Y437249D02*
D03*
Y485249D02*
D03*
Y497249D02*
D03*
Y473249D02*
D03*
Y461249D02*
D03*
Y401249D02*
D03*
Y209250D02*
D03*
Y221250D02*
D03*
Y233249D02*
D03*
Y281250D02*
D03*
Y293249D02*
D03*
Y269249D02*
D03*
Y353249D02*
D03*
Y365249D02*
D03*
Y389249D02*
D03*
Y377249D02*
D03*
Y329249D02*
D03*
Y341249D02*
D03*
Y317249D02*
D03*
Y305249D02*
D03*
Y113250D02*
D03*
Y125250D02*
D03*
Y137250D02*
D03*
Y185250D02*
D03*
Y197250D02*
D03*
Y173250D02*
D03*
Y161250D02*
D03*
Y65250D02*
D03*
Y77250D02*
D03*
Y101250D02*
D03*
Y89250D02*
D03*
Y41250D02*
D03*
Y53250D02*
D03*
Y29250D02*
D03*
Y17250D02*
D03*
X137250D02*
D03*
Y29250D02*
D03*
Y53250D02*
D03*
Y41250D02*
D03*
Y89250D02*
D03*
Y101250D02*
D03*
Y77250D02*
D03*
Y65250D02*
D03*
Y173250D02*
D03*
Y197250D02*
D03*
Y185250D02*
D03*
Y137250D02*
D03*
Y125250D02*
D03*
Y113250D02*
D03*
Y305249D02*
D03*
Y317249D02*
D03*
Y341249D02*
D03*
Y329249D02*
D03*
Y377249D02*
D03*
Y389249D02*
D03*
Y365249D02*
D03*
Y353249D02*
D03*
Y257250D02*
D03*
Y269249D02*
D03*
Y293249D02*
D03*
Y281250D02*
D03*
Y233249D02*
D03*
Y245250D02*
D03*
Y221250D02*
D03*
Y209250D02*
D03*
Y401249D02*
D03*
Y461249D02*
D03*
Y473249D02*
D03*
Y497249D02*
D03*
Y485249D02*
D03*
Y437249D02*
D03*
Y449249D02*
D03*
Y425249D02*
D03*
Y413249D02*
D03*
Y509249D02*
D03*
Y521249D02*
D03*
X149250D02*
D03*
Y509249D02*
D03*
Y413249D02*
D03*
Y425249D02*
D03*
Y449249D02*
D03*
Y437249D02*
D03*
Y485249D02*
D03*
Y497249D02*
D03*
Y473249D02*
D03*
Y461249D02*
D03*
Y401249D02*
D03*
Y209250D02*
D03*
Y221250D02*
D03*
Y233249D02*
D03*
Y281250D02*
D03*
Y293249D02*
D03*
Y269249D02*
D03*
Y257250D02*
D03*
Y353249D02*
D03*
Y365249D02*
D03*
Y389249D02*
D03*
Y377249D02*
D03*
Y329249D02*
D03*
Y341249D02*
D03*
Y317249D02*
D03*
Y305249D02*
D03*
Y113250D02*
D03*
Y125250D02*
D03*
Y137250D02*
D03*
Y185250D02*
D03*
Y197250D02*
D03*
Y173250D02*
D03*
Y161250D02*
D03*
Y65250D02*
D03*
Y77250D02*
D03*
Y101250D02*
D03*
Y89250D02*
D03*
Y41250D02*
D03*
Y53250D02*
D03*
Y29250D02*
D03*
Y17250D02*
D03*
X113250D02*
D03*
Y29250D02*
D03*
Y53250D02*
D03*
Y41250D02*
D03*
Y89250D02*
D03*
Y101250D02*
D03*
Y77250D02*
D03*
Y65250D02*
D03*
Y161250D02*
D03*
Y173250D02*
D03*
Y197250D02*
D03*
Y185250D02*
D03*
Y137250D02*
D03*
Y149250D02*
D03*
Y125250D02*
D03*
Y113250D02*
D03*
Y305249D02*
D03*
Y317249D02*
D03*
Y341249D02*
D03*
Y329249D02*
D03*
Y377249D02*
D03*
Y389249D02*
D03*
Y365249D02*
D03*
Y353249D02*
D03*
Y293249D02*
D03*
Y233249D02*
D03*
Y245250D02*
D03*
Y221250D02*
D03*
Y209250D02*
D03*
Y401249D02*
D03*
Y461249D02*
D03*
Y473249D02*
D03*
Y497249D02*
D03*
Y485249D02*
D03*
Y437249D02*
D03*
Y449249D02*
D03*
Y425249D02*
D03*
Y413249D02*
D03*
Y509249D02*
D03*
Y521249D02*
D03*
X125250D02*
D03*
Y509249D02*
D03*
Y413249D02*
D03*
Y425249D02*
D03*
Y449249D02*
D03*
Y437249D02*
D03*
Y485249D02*
D03*
Y497249D02*
D03*
Y473249D02*
D03*
Y461249D02*
D03*
Y401249D02*
D03*
Y281250D02*
D03*
Y293249D02*
D03*
Y353249D02*
D03*
Y365249D02*
D03*
Y389249D02*
D03*
Y377249D02*
D03*
Y329249D02*
D03*
Y341249D02*
D03*
Y317249D02*
D03*
Y305249D02*
D03*
Y113250D02*
D03*
Y125250D02*
D03*
Y137250D02*
D03*
Y65250D02*
D03*
Y77250D02*
D03*
Y101250D02*
D03*
Y89250D02*
D03*
Y41250D02*
D03*
Y53250D02*
D03*
Y29250D02*
D03*
Y17250D02*
D03*
X89250D02*
D03*
Y29250D02*
D03*
Y53250D02*
D03*
Y41250D02*
D03*
Y89250D02*
D03*
Y101250D02*
D03*
Y77250D02*
D03*
Y65250D02*
D03*
Y161250D02*
D03*
Y173250D02*
D03*
Y197250D02*
D03*
Y185250D02*
D03*
Y137250D02*
D03*
Y149250D02*
D03*
Y125250D02*
D03*
Y113250D02*
D03*
Y317249D02*
D03*
Y341249D02*
D03*
Y329249D02*
D03*
Y377249D02*
D03*
Y389249D02*
D03*
Y365249D02*
D03*
Y353249D02*
D03*
Y257250D02*
D03*
Y281250D02*
D03*
Y233249D02*
D03*
Y221250D02*
D03*
Y209250D02*
D03*
Y401249D02*
D03*
Y461249D02*
D03*
Y473249D02*
D03*
Y497249D02*
D03*
Y485249D02*
D03*
Y437249D02*
D03*
Y449249D02*
D03*
Y425249D02*
D03*
Y413249D02*
D03*
Y509249D02*
D03*
Y521249D02*
D03*
X101250D02*
D03*
Y509249D02*
D03*
Y413249D02*
D03*
Y425249D02*
D03*
Y449249D02*
D03*
Y437249D02*
D03*
Y485249D02*
D03*
Y497249D02*
D03*
Y473249D02*
D03*
Y461249D02*
D03*
Y401249D02*
D03*
Y209250D02*
D03*
Y221250D02*
D03*
Y233249D02*
D03*
Y293249D02*
D03*
Y257250D02*
D03*
Y353249D02*
D03*
Y365249D02*
D03*
Y389249D02*
D03*
Y377249D02*
D03*
Y329249D02*
D03*
Y341249D02*
D03*
Y317249D02*
D03*
Y305249D02*
D03*
Y113250D02*
D03*
Y125250D02*
D03*
Y149250D02*
D03*
Y137250D02*
D03*
Y185250D02*
D03*
Y197250D02*
D03*
Y173250D02*
D03*
Y161250D02*
D03*
Y65250D02*
D03*
Y77250D02*
D03*
Y101250D02*
D03*
Y89250D02*
D03*
Y41250D02*
D03*
Y53250D02*
D03*
Y29250D02*
D03*
Y17250D02*
D03*
X65250D02*
D03*
Y29250D02*
D03*
Y53250D02*
D03*
Y41250D02*
D03*
Y89250D02*
D03*
Y101250D02*
D03*
Y77250D02*
D03*
Y65250D02*
D03*
Y137250D02*
D03*
Y125250D02*
D03*
Y113250D02*
D03*
Y257250D02*
D03*
Y269249D02*
D03*
Y281250D02*
D03*
Y461249D02*
D03*
Y473249D02*
D03*
Y497249D02*
D03*
Y485249D02*
D03*
Y437249D02*
D03*
Y449249D02*
D03*
Y425249D02*
D03*
Y413249D02*
D03*
Y509249D02*
D03*
Y521249D02*
D03*
X77250D02*
D03*
Y509249D02*
D03*
Y413249D02*
D03*
Y425249D02*
D03*
Y449249D02*
D03*
Y437249D02*
D03*
Y485249D02*
D03*
Y497249D02*
D03*
Y473249D02*
D03*
Y461249D02*
D03*
Y401249D02*
D03*
Y209250D02*
D03*
Y221250D02*
D03*
Y233249D02*
D03*
Y281250D02*
D03*
Y269249D02*
D03*
Y353249D02*
D03*
Y365249D02*
D03*
Y389249D02*
D03*
Y377249D02*
D03*
Y329249D02*
D03*
Y341249D02*
D03*
Y317249D02*
D03*
Y113250D02*
D03*
Y125250D02*
D03*
Y149250D02*
D03*
Y137250D02*
D03*
Y185250D02*
D03*
Y197250D02*
D03*
Y173250D02*
D03*
Y161250D02*
D03*
Y65250D02*
D03*
Y77250D02*
D03*
Y101250D02*
D03*
Y89250D02*
D03*
Y41250D02*
D03*
Y53250D02*
D03*
Y29250D02*
D03*
Y17250D02*
D03*
X41250D02*
D03*
Y29250D02*
D03*
Y53250D02*
D03*
Y41250D02*
D03*
Y89250D02*
D03*
Y101250D02*
D03*
Y77250D02*
D03*
Y65250D02*
D03*
Y161250D02*
D03*
Y173250D02*
D03*
Y197250D02*
D03*
Y185250D02*
D03*
Y137250D02*
D03*
Y125250D02*
D03*
Y113250D02*
D03*
Y305249D02*
D03*
Y317249D02*
D03*
Y341249D02*
D03*
Y329249D02*
D03*
Y377249D02*
D03*
Y365249D02*
D03*
Y353249D02*
D03*
Y257250D02*
D03*
Y269249D02*
D03*
Y293249D02*
D03*
Y281250D02*
D03*
Y233249D02*
D03*
Y245250D02*
D03*
Y221250D02*
D03*
Y209250D02*
D03*
Y461249D02*
D03*
Y473249D02*
D03*
Y497249D02*
D03*
Y485249D02*
D03*
Y437249D02*
D03*
Y449249D02*
D03*
Y425249D02*
D03*
Y413249D02*
D03*
Y509249D02*
D03*
Y521249D02*
D03*
X53250D02*
D03*
Y509249D02*
D03*
Y413249D02*
D03*
Y425249D02*
D03*
Y449249D02*
D03*
Y437249D02*
D03*
Y485249D02*
D03*
Y497249D02*
D03*
Y473249D02*
D03*
Y461249D02*
D03*
Y209250D02*
D03*
Y221250D02*
D03*
Y245250D02*
D03*
Y233249D02*
D03*
Y281250D02*
D03*
Y293249D02*
D03*
Y269249D02*
D03*
Y257250D02*
D03*
Y353249D02*
D03*
Y365249D02*
D03*
Y377249D02*
D03*
Y329249D02*
D03*
Y341249D02*
D03*
Y317249D02*
D03*
Y305249D02*
D03*
Y113250D02*
D03*
Y125250D02*
D03*
Y137250D02*
D03*
Y185250D02*
D03*
Y197250D02*
D03*
Y173250D02*
D03*
Y161250D02*
D03*
Y65250D02*
D03*
Y77250D02*
D03*
Y101250D02*
D03*
Y89250D02*
D03*
Y41250D02*
D03*
Y53250D02*
D03*
Y29250D02*
D03*
Y17250D02*
D03*
X29250D02*
D03*
Y29250D02*
D03*
Y53250D02*
D03*
Y41250D02*
D03*
Y89250D02*
D03*
Y101250D02*
D03*
Y77250D02*
D03*
Y65250D02*
D03*
Y161250D02*
D03*
Y173250D02*
D03*
Y197250D02*
D03*
Y185250D02*
D03*
Y137250D02*
D03*
Y125250D02*
D03*
Y113250D02*
D03*
Y305249D02*
D03*
Y317249D02*
D03*
Y341249D02*
D03*
Y329249D02*
D03*
Y377249D02*
D03*
Y365249D02*
D03*
Y353249D02*
D03*
Y257250D02*
D03*
Y269249D02*
D03*
Y293249D02*
D03*
Y281250D02*
D03*
Y233249D02*
D03*
Y245250D02*
D03*
Y221250D02*
D03*
Y209250D02*
D03*
Y461249D02*
D03*
Y473249D02*
D03*
Y497249D02*
D03*
Y485249D02*
D03*
Y437249D02*
D03*
Y449249D02*
D03*
Y425249D02*
D03*
Y413249D02*
D03*
Y509249D02*
D03*
Y521249D02*
D03*
X17250D02*
D03*
Y509249D02*
D03*
Y413249D02*
D03*
Y425249D02*
D03*
Y449249D02*
D03*
Y437249D02*
D03*
Y485249D02*
D03*
Y497249D02*
D03*
Y473249D02*
D03*
Y461249D02*
D03*
X5250Y425249D02*
D03*
X17250Y209250D02*
D03*
Y221250D02*
D03*
Y245250D02*
D03*
Y233249D02*
D03*
Y281250D02*
D03*
Y293249D02*
D03*
Y269249D02*
D03*
Y257250D02*
D03*
Y353249D02*
D03*
Y365249D02*
D03*
Y377249D02*
D03*
Y329249D02*
D03*
Y341249D02*
D03*
Y317249D02*
D03*
Y305249D02*
D03*
Y113250D02*
D03*
Y125250D02*
D03*
Y137250D02*
D03*
Y185250D02*
D03*
Y197250D02*
D03*
Y173250D02*
D03*
Y161250D02*
D03*
Y65250D02*
D03*
Y77250D02*
D03*
Y101250D02*
D03*
Y89250D02*
D03*
Y41250D02*
D03*
Y53250D02*
D03*
Y29250D02*
D03*
Y17250D02*
D03*
X5250Y161250D02*
D03*
X244750Y455249D02*
D03*
Y449249D02*
D03*
Y443249D02*
D03*
Y467249D02*
D03*
Y473249D02*
D03*
Y461249D02*
D03*
Y509249D02*
D03*
Y503249D02*
D03*
Y497249D02*
D03*
Y485249D02*
D03*
Y491249D02*
D03*
Y479249D02*
D03*
X240000Y535000D02*
D03*
X244750Y521249D02*
D03*
Y527249D02*
D03*
Y515249D02*
D03*
Y299249D02*
D03*
Y311249D02*
D03*
Y305249D02*
D03*
Y323249D02*
D03*
Y329249D02*
D03*
Y317249D02*
D03*
Y365249D02*
D03*
Y359249D02*
D03*
Y353249D02*
D03*
Y341249D02*
D03*
Y347249D02*
D03*
Y335249D02*
D03*
Y419249D02*
D03*
Y413249D02*
D03*
Y407249D02*
D03*
Y431249D02*
D03*
Y437249D02*
D03*
Y425249D02*
D03*
Y371249D02*
D03*
Y377249D02*
D03*
Y383249D02*
D03*
Y167250D02*
D03*
Y161250D02*
D03*
Y173250D02*
D03*
Y179250D02*
D03*
Y185250D02*
D03*
Y221250D02*
D03*
Y215250D02*
D03*
Y209250D02*
D03*
Y197250D02*
D03*
Y203250D02*
D03*
Y191250D02*
D03*
Y263249D02*
D03*
Y275250D02*
D03*
Y269249D02*
D03*
Y281250D02*
D03*
Y287249D02*
D03*
Y293249D02*
D03*
Y257250D02*
D03*
Y251250D02*
D03*
Y245250D02*
D03*
Y233249D02*
D03*
Y239249D02*
D03*
Y227250D02*
D03*
Y23250D02*
D03*
Y17250D02*
D03*
Y35250D02*
D03*
Y41250D02*
D03*
Y29250D02*
D03*
Y77250D02*
D03*
Y71250D02*
D03*
Y65250D02*
D03*
Y53250D02*
D03*
Y59250D02*
D03*
Y47250D02*
D03*
Y119250D02*
D03*
Y131250D02*
D03*
Y125250D02*
D03*
Y137250D02*
D03*
Y101250D02*
D03*
Y113250D02*
D03*
Y107250D02*
D03*
Y83250D02*
D03*
Y89250D02*
D03*
Y95250D02*
D03*
X240000Y10000D02*
D03*
X155250Y5250D02*
D03*
X167250D02*
D03*
X161250D02*
D03*
X179250D02*
D03*
X185250D02*
D03*
X173250D02*
D03*
X209250D02*
D03*
X221250D02*
D03*
X215250D02*
D03*
X197250D02*
D03*
X203250D02*
D03*
X191250D02*
D03*
X233249D02*
D03*
X227250D02*
D03*
X23250D02*
D03*
X17250D02*
D03*
X35250D02*
D03*
X41250D02*
D03*
X29250D02*
D03*
X77250D02*
D03*
X71250D02*
D03*
X65250D02*
D03*
X53250D02*
D03*
X59250D02*
D03*
X47250D02*
D03*
X131250D02*
D03*
X125250D02*
D03*
X119250D02*
D03*
X143250D02*
D03*
X149250D02*
D03*
X137250D02*
D03*
X113250D02*
D03*
X107250D02*
D03*
X101250D02*
D03*
X89250D02*
D03*
X95250D02*
D03*
X83250D02*
D03*
X167250Y539750D02*
D03*
X161250D02*
D03*
X155250D02*
D03*
X179250D02*
D03*
X185250D02*
D03*
X173250D02*
D03*
X209250D02*
D03*
X221250D02*
D03*
X215250D02*
D03*
X197250D02*
D03*
X203250D02*
D03*
X191250D02*
D03*
X233249D02*
D03*
X227250D02*
D03*
X23250D02*
D03*
X17250D02*
D03*
X10000Y535000D02*
D03*
X35250Y539750D02*
D03*
X41250D02*
D03*
X29250D02*
D03*
X77250D02*
D03*
X71250D02*
D03*
X65250D02*
D03*
X53250D02*
D03*
X59250D02*
D03*
X47250D02*
D03*
X131250D02*
D03*
X125250D02*
D03*
X119250D02*
D03*
X143250D02*
D03*
X149250D02*
D03*
X137250D02*
D03*
X113250D02*
D03*
X107250D02*
D03*
X101250D02*
D03*
X89250D02*
D03*
X95250D02*
D03*
X83250D02*
D03*
X5250Y455249D02*
D03*
Y449249D02*
D03*
Y443249D02*
D03*
Y467249D02*
D03*
Y473249D02*
D03*
Y461249D02*
D03*
Y497249D02*
D03*
Y509249D02*
D03*
Y503249D02*
D03*
Y485249D02*
D03*
Y491249D02*
D03*
Y479249D02*
D03*
Y521249D02*
D03*
Y527249D02*
D03*
Y515249D02*
D03*
Y311249D02*
D03*
Y305249D02*
D03*
Y299249D02*
D03*
Y323249D02*
D03*
Y329249D02*
D03*
Y317249D02*
D03*
Y365249D02*
D03*
Y359249D02*
D03*
Y353249D02*
D03*
Y341249D02*
D03*
Y347249D02*
D03*
Y335249D02*
D03*
Y419249D02*
D03*
Y413249D02*
D03*
Y407249D02*
D03*
Y431249D02*
D03*
Y437249D02*
D03*
Y377249D02*
D03*
Y383249D02*
D03*
Y371249D02*
D03*
Y167250D02*
D03*
Y179250D02*
D03*
Y185250D02*
D03*
Y173250D02*
D03*
Y221250D02*
D03*
Y215250D02*
D03*
Y209250D02*
D03*
Y197250D02*
D03*
Y203250D02*
D03*
Y191250D02*
D03*
Y275250D02*
D03*
Y269249D02*
D03*
Y263249D02*
D03*
Y287249D02*
D03*
Y293249D02*
D03*
Y281250D02*
D03*
Y245250D02*
D03*
Y257250D02*
D03*
Y251250D02*
D03*
Y233249D02*
D03*
Y239249D02*
D03*
Y227250D02*
D03*
Y83250D02*
D03*
Y95250D02*
D03*
Y89250D02*
D03*
Y107250D02*
D03*
Y113250D02*
D03*
Y101250D02*
D03*
Y137250D02*
D03*
Y119250D02*
D03*
Y125250D02*
D03*
Y131250D02*
D03*
Y59250D02*
D03*
Y53250D02*
D03*
Y47250D02*
D03*
Y65250D02*
D03*
Y71250D02*
D03*
Y77250D02*
D03*
Y41250D02*
D03*
Y35250D02*
D03*
Y29250D02*
D03*
Y17250D02*
D03*
Y23250D02*
D03*
X10000Y10000D02*
D03*
M02*
